<svg width="44" height="44" viewBox="0 0 44 44" fill="none" xmlns="http://www.w3.org/2000/svg">
<circle cx="22" cy="22" r="22" fill="#FF9700"/>
<path d="M27.2054 25.2301C26.552 24.585 25.7362 24.585 25.087 25.2301C24.5917 25.7212 24.0964 26.2123 23.6095 26.7118C23.4763 26.8491 23.3639 26.8782 23.2016 26.7867C22.8812 26.6119 22.5399 26.4704 22.2319 26.2789C20.7961 25.3758 19.5933 24.2146 18.5278 22.9077C17.9993 22.2584 17.529 21.5634 17.2002 20.7809C17.1336 20.6228 17.1461 20.5187 17.2751 20.3897C17.7704 19.9111 18.2532 19.4199 18.7401 18.9288C19.4185 18.2463 19.4185 17.4472 18.7359 16.7604C18.3489 16.3692 17.9618 15.9863 17.5748 15.5951C17.1752 15.1955 16.7799 14.7918 16.3761 14.3964C15.7227 13.7596 14.907 13.7596 14.2577 14.4006C13.7583 14.8917 13.2797 15.3953 12.772 15.8781C12.3017 16.3234 12.0644 16.8686 12.0145 17.5054C11.9354 18.5418 12.1893 19.5198 12.5472 20.4729C13.2797 22.4457 14.3951 24.1979 15.7477 25.8044C17.5748 27.977 19.7556 29.6959 22.3068 30.9362C23.4555 31.4939 24.6458 31.9226 25.9402 31.9933C26.8308 32.0433 27.6049 31.8185 28.225 31.1235C28.6495 30.649 29.1282 30.2162 29.5776 29.7625C30.2435 29.0883 30.2477 28.2725 29.586 27.6066C28.7952 26.8116 28.0003 26.0209 27.2054 25.2301Z" fill="white"/>
<path d="M26.4107 21.9142L27.9464 21.652C27.705 20.2411 27.0391 18.9634 26.0278 17.9478C24.9582 16.8782 23.6056 16.204 22.1156 15.9959L21.8992 17.54C23.0521 17.7023 24.1009 18.2225 24.9291 19.0508C25.7115 19.8332 26.2234 20.8238 26.4107 21.9142Z" fill="white"/>
<path d="M28.812 15.238C27.039 13.465 24.7958 12.3454 22.3195 12L22.103 13.5441C24.2422 13.8438 26.1817 14.8135 27.7133 16.341C29.1658 17.7935 30.1188 19.6289 30.4643 21.6475L32 21.3853C31.5963 19.0463 30.4934 16.9236 28.812 15.238Z" fill="white"/>
</svg>
