<svg width="44" height="44" viewBox="0 0 44 44" fill="none" xmlns="http://www.w3.org/2000/svg">
<circle cx="22" cy="22" r="22" fill="#25D366"/>
<path d="M17.0679 29.5105L17.4001 29.7068C18.7959 30.5325 20.3961 30.9692 22.0279 30.9701H22.0315C27.043 30.9701 31.1219 26.905 31.1238 21.9089C31.1245 19.4876 30.1798 17.2111 28.4631 15.4983C26.7463 13.7857 24.4637 12.842 22.0347 12.841C17.0194 12.841 12.9406 16.9054 12.9387 21.9015C12.938 23.6135 13.4184 25.281 14.3287 26.7235L14.5451 27.0663L13.6263 30.41L17.0679 29.5105ZM11 33L12.5519 27.351C11.5947 25.6977 11.0911 23.8222 11.0919 21.901C11.0942 15.8902 16.0013 11 22.0317 11C24.9579 11.0013 27.7045 12.1365 29.7699 14.1971C31.8352 16.2577 32.9721 18.9968 32.9712 21.9098C32.9686 27.9203 28.0605 32.8114 22.0317 32.8114C22.0313 32.8114 22.0319 32.8114 22.0317 32.8114H22.027C20.1962 32.8108 18.3972 32.353 16.7995 31.4843L11 33Z" fill="white"/>
<path fill-rule="evenodd" clip-rule="evenodd" d="M19.2972 17.3463C19.0924 16.8925 18.8769 16.8834 18.6821 16.8755C18.5227 16.8687 18.3404 16.8691 18.1583 16.8691C17.976 16.8691 17.6798 16.9373 17.4294 17.21C17.1788 17.4827 16.4727 18.1418 16.4727 19.4824C16.4727 20.8231 17.4523 22.1185 17.5887 22.3005C17.7255 22.4821 19.4798 25.3212 22.2579 26.4133C24.5669 27.321 25.0368 27.1404 25.5379 27.095C26.0391 27.0496 27.1552 26.436 27.3829 25.7997C27.6107 25.1636 27.6107 24.6182 27.5424 24.5043C27.4741 24.3908 27.2918 24.3226 27.0185 24.1864C26.745 24.0501 25.4012 23.3909 25.1507 23.2999C24.9001 23.2091 24.7179 23.1638 24.5355 23.4366C24.3533 23.709 23.8298 24.3226 23.6703 24.5043C23.5109 24.6864 23.3514 24.7092 23.078 24.5729C22.8046 24.4361 21.9242 24.1487 20.8799 23.2205C20.0673 22.4983 19.5187 21.6064 19.3592 21.3336C19.1998 21.0611 19.3422 20.9135 19.4792 20.7777C19.602 20.6556 19.7527 20.4595 19.8894 20.3005C20.0258 20.1414 20.0713 20.0278 20.1624 19.8461C20.2536 19.6642 20.208 19.5051 20.1397 19.3688C20.0713 19.2325 19.5402 17.8851 19.2972 17.3463Z" fill="white"/>
</svg>
