<svg width="44" height="44" viewBox="0 0 44 44" fill="none" xmlns="http://www.w3.org/2000/svg">
<circle cx="22" cy="22" r="22" fill="#7360F2"/>
<g clip-path="url(#clip0_41_52)">
<path d="M31.3133 12.4769C30.6819 11.9119 28.1562 10.0509 22.4734 10.0177C22.4734 10.0177 15.7936 9.61888 12.5368 12.6098C10.709 14.4376 10.0776 17.063 10.0111 20.353C9.94467 23.6431 9.84498 29.7911 15.7936 31.486V34.0449C15.7936 34.0449 15.7604 35.0751 16.4251 35.2745C17.2559 35.5404 17.7211 34.7428 18.5187 33.912C18.9507 33.4467 19.5489 32.7821 19.981 32.2504C24.0353 32.5827 27.1592 31.8183 27.5248 31.6854C28.3556 31.4195 32.9749 30.8214 33.7393 24.6733C34.5369 18.2926 33.407 14.2715 31.3133 12.4769ZM32.0112 24.1748C31.3798 29.3259 27.6245 29.6582 26.9266 29.8576C26.6275 29.9573 23.9024 30.622 20.4462 30.4226C20.4462 30.4226 17.8873 33.5132 17.0565 34.344C16.9235 34.4769 16.7906 34.5102 16.6909 34.5102C16.558 34.4769 16.5248 34.3108 16.5248 34.0781C16.5248 33.7458 16.558 29.8244 16.558 29.8244C11.5398 28.4286 11.8389 23.1778 11.8722 20.4195C11.9386 17.6612 12.4371 15.4346 13.9658 13.9059C16.7242 11.4134 22.4069 11.779 22.4069 11.779C27.1925 11.8122 29.4855 13.2412 30.0172 13.7397C31.7453 15.2684 32.6426 18.8908 32.0112 24.1748Z" fill="white"/>
<path d="M24.7987 20.2206C24.7322 18.9577 24.1008 18.293 22.8711 18.2266" stroke="white" stroke-width="0.640394" stroke-linecap="round" stroke-linejoin="round"/>
<path d="M26.4627 20.752C26.4959 19.5888 26.1304 18.5918 25.4325 17.8274C24.7013 17.0298 23.7043 16.5977 22.4414 16.498" stroke="white" stroke-width="0.640394" stroke-linecap="round" stroke-linejoin="round"/>
<path d="M28.1231 21.4172C28.1231 19.3899 27.4916 17.7947 26.2952 16.6315C25.0988 15.4683 23.6032 14.8701 21.8086 14.8701" stroke="white" stroke-width="0.640394" stroke-linecap="round" stroke-linejoin="round"/>
<path d="M22.9384 24.5071C22.9384 24.5071 23.4037 24.5403 23.6363 24.2412L24.1016 23.643C24.3342 23.3439 24.8659 23.1445 25.4309 23.4436C25.73 23.6098 26.2617 23.9421 26.594 24.208C26.9596 24.4739 27.6907 25.072 27.6907 25.072C28.0563 25.3711 28.1227 25.8032 27.8901 26.2684C27.6575 26.7004 27.3251 27.0992 26.8931 27.4648C26.5608 27.7639 26.2285 27.8968 25.8961 27.9633H25.7632C25.6303 27.9633 25.4641 27.9301 25.3312 27.8968C24.8327 27.7639 24.0019 27.3983 22.5729 26.634C21.6756 26.1355 20.9112 25.6038 20.2798 25.1053C19.9475 24.8394 19.5819 24.5403 19.2496 24.1748L19.1167 24.0418C18.7511 23.6763 18.452 23.3439 18.1861 23.0116C17.6876 22.3802 17.1559 21.6158 16.6574 20.7186C15.8931 19.3228 15.5275 18.492 15.3946 17.9602C15.3614 17.8273 15.3281 17.6944 15.3281 17.5282V17.3953C15.3614 17.063 15.5275 16.7306 15.8266 16.3983C16.1922 15.9995 16.591 15.6672 17.023 15.4013C17.4883 15.1687 17.9203 15.2352 18.2194 15.6007C18.2194 15.6007 18.8176 16.3318 19.0834 16.6974C19.3161 17.0297 19.6484 17.5615 19.8478 17.8606C20.1469 18.3923 19.9475 18.9572 19.6816 19.1899L19.0834 19.6551C18.7843 19.8877 18.8176 20.353 18.8176 20.353C18.8176 20.353 19.6484 23.643 22.9384 24.5071Z" fill="white"/>
</g>
<defs>
<clipPath id="clip0_41_52">
<rect width="24" height="25.3266" fill="white" transform="translate(10 10)"/>
</clipPath>
</defs>
</svg>
