<svg width="18" height="18" viewBox="0 0 18 18" fill="none" xmlns="http://www.w3.org/2000/svg">
<path fill-rule="evenodd" clip-rule="evenodd" d="M7.97526 5.70499C8.44155 5.0766 8.60876 4.41434 8.08139 3.82976C6.89793 2.17378 6.10203 1.14972 5.60279 0.656563C4.65369 -0.280998 3.0924 -0.154178 2.27041 0.655761C1.82891 1.09079 1.67944 1.24018 1.22611 1.70063C-1.29897 4.22707 0.240956 9.56788 4.33465 13.6656C8.42741 17.7624 13.7677 19.3031 16.2981 16.7713C16.7164 16.3681 17.0706 16.0137 17.3499 15.7185C18.1555 14.8671 18.2777 13.3746 17.3446 12.4051C16.8662 11.908 15.8897 11.1505 14.164 9.91612C13.6355 9.44353 13.0089 9.54595 12.4343 9.92288C12.158 10.1042 11.9569 10.2876 11.5771 10.6677L10.8875 11.3577C10.7966 11.4486 9.56328 10.8309 8.36604 9.63253C7.16814 8.43346 6.5509 7.20003 6.64131 7.10964L7.3314 6.41916C7.45189 6.29855 7.50949 6.24016 7.58337 6.16252C7.73727 6.00077 7.8647 5.85397 7.97526 5.70499ZM12.1582 12.6305L12.8479 11.9404C13.057 11.7312 13.1924 11.6026 13.3026 11.5139C14.8143 12.5995 15.6898 13.2821 16.0474 13.6536C16.2621 13.8767 16.2287 14.2838 16.0421 14.481C15.7838 14.7541 15.4482 15.0898 15.0364 15.487C13.4002 17.1239 9.08934 15.8802 5.60565 12.3931C2.12086 8.90489 0.877726 4.59342 2.50161 2.96864C2.9531 2.51008 3.09615 2.36711 3.53135 1.93829C3.69453 1.77751 4.139 1.74141 4.3375 1.93749C4.72186 2.31718 5.43484 3.23009 6.48367 4.6911C6.42937 4.75851 6.36156 4.83469 6.27903 4.92142C6.21846 4.98508 6.16799 5.03624 6.05767 5.14667L5.36825 5.83646C4.19542 7.0092 5.19425 9.00515 7.09231 10.9051C8.98906 12.8037 10.9858 13.8036 12.1582 12.6305ZM10.4916 0.0634766C14.3826 0.535111 17.4679 3.62036 17.9395 7.51134L16.1616 7.80766C15.8183 4.67352 13.3294 2.18465 10.1953 1.84137L10.4916 0.0634766ZM9.90274 3.62109C12.2801 3.83373 14.1735 5.72715 14.3862 8.10453L12.6026 8.40179C12.5269 6.78099 11.2263 5.48038 9.60547 5.40469L9.90274 3.62109Z" fill="#1C1C1C"/>
</svg>
