<svg width="15" height="18" viewBox="0 0 15 18" fill="none" xmlns="http://www.w3.org/2000/svg">
<path fill-rule="evenodd" clip-rule="evenodd" d="M7.2556 18L7.78585 17.537C12.2448 13.6435 14.5112 10.2439 14.5112 7.2556C14.5112 3.0237 11.2083 0 7.2556 0C3.30295 0 0 3.0237 0 7.2556C0 10.2439 2.26642 13.6435 6.72536 17.537L7.2556 18ZM7.25653 15.8522C3.47282 12.4421 1.61328 9.55254 1.61328 7.25555C1.61328 3.94748 4.16412 1.6123 7.25653 1.6123C10.3489 1.6123 12.8998 3.94748 12.8998 7.25555C12.8998 9.55254 11.0402 12.4421 7.25653 15.8522ZM7.25745 3.22461C9.48365 3.22461 11.2883 5.0293 11.2883 7.2555C11.2883 9.4817 9.48365 11.2864 7.25745 11.2864C5.03125 11.2864 3.22656 9.4817 3.22656 7.2555C3.22656 5.0293 5.03125 3.22461 7.25745 3.22461ZM4.83594 7.25545C4.83594 5.91973 5.91875 4.83691 7.25447 4.83691C8.59019 4.83691 9.67301 5.91973 9.67301 7.25545C9.67301 8.59117 8.59019 9.67398 7.25447 9.67398C5.91875 9.67398 4.83594 8.59117 4.83594 7.25545Z" fill="#1C1C1C"/>
</svg>
