<svg width="256" height="70" viewBox="0 0 256 70" fill="none" xmlns="http://www.w3.org/2000/svg">
<path d="M106.591 39.49C107.693 37.3162 108.81 35.1423 109.941 32.9684C111.579 29.7821 112.755 27.4593 113.47 26.0002C114.721 23.4392 115.897 20.9378 116.999 18.4959C117.595 18.5852 118.205 18.6746 118.83 18.7639C119.098 18.7639 119.411 18.7341 119.768 18.6746C120.126 18.615 120.468 18.5555 120.796 18.4959C121.421 24.005 122.046 29.4843 122.672 34.9338C123.327 40.3834 124.012 45.1033 124.727 49.0937C124.31 49.0937 123.595 49.0639 122.583 49.0044C121.6 48.9448 121.064 48.915 120.974 48.915C120.558 48.915 119.873 48.9448 118.92 49.0044C117.967 49.0639 117.461 49.0937 117.401 49.0937C117.401 46.2945 117.178 43.0039 116.731 39.222C116.284 35.4103 115.867 31.7922 115.48 28.3676C114.914 29.4694 113.798 31.7326 112.13 35.1572C110.075 39.356 108.959 41.6341 108.78 41.9914C108.036 43.5399 106.963 45.8478 105.564 48.915C105.028 48.8555 104.671 48.8257 104.492 48.8257C104.373 48.8257 104.164 48.8555 103.866 48.915C102.854 46.771 101.842 44.6418 100.829 42.5275C99.5485 39.9069 98.4467 37.6586 97.5236 35.7825C96.3622 33.4598 95.2157 31.137 94.0841 28.8143C93.6374 32.1793 93.3247 34.6361 93.1461 36.1846C92.8483 38.686 92.6101 40.9939 92.4314 43.1082C92.2825 45.2225 92.208 47.2176 92.208 49.0937C91.9996 49.0937 91.6571 49.0639 91.1807 49.0044C90.7042 48.9448 90.3469 48.915 90.1086 48.915C89.8704 48.915 89.4684 48.9448 88.9026 49.0044C88.3666 49.0639 88.0688 49.0937 88.0092 49.0937C88.4261 46.8007 88.9472 43.674 89.5726 39.7134C89.7513 38.552 90.2426 35.1423 91.0467 29.4843C91.5529 25.8215 92.074 22.1587 92.6101 18.4959C93.2056 18.5852 93.8161 18.6746 94.4415 18.7639C94.7095 18.7639 95.0073 18.7341 95.3348 18.6746C95.6624 18.615 95.9751 18.5555 96.2729 18.4959C97.5236 21.176 98.6254 23.4988 99.5783 25.4642C100.144 26.6255 101.305 28.9632 103.062 32.4771C104.224 34.8296 105.4 37.1673 106.591 39.49ZM130.029 49.0937V18.4959C130.386 18.4959 130.937 18.5406 131.681 18.6299C132.426 18.7192 132.992 18.7639 133.379 18.7639C133.736 18.7639 134.287 18.7192 135.031 18.6299C135.776 18.5406 136.342 18.4959 136.729 18.4959V39.4454C139.23 36.795 142.178 33.3556 145.573 29.127C148.819 25.077 151.529 21.5036 153.703 18.4066C154.179 18.4661 154.566 18.4959 154.864 18.4959C155.102 18.4959 155.475 18.481 155.981 18.4512C156.487 18.4215 156.859 18.4066 157.098 18.4066V49.0937C156.74 49.0937 156.189 49.0639 155.445 49.0044C154.7 48.9448 154.12 48.915 153.703 48.915C153.375 48.915 152.839 48.9448 152.095 49.0044C151.35 49.0639 150.784 49.0937 150.397 49.0937V27.9656C147.807 30.9137 144.873 34.4127 141.598 38.4626C138.352 42.5126 135.612 46.0563 133.379 49.0937C133.17 49.0639 132.932 49.049 132.664 49.049C132.396 49.049 132.202 49.049 132.083 49.049C131.726 49.049 131.369 49.049 131.011 49.049C130.684 49.049 130.356 49.0639 130.029 49.0937ZM161.177 45.6989H163.097C164.408 42.6913 165.688 39.6836 166.939 36.6759C168.428 33.162 169.664 30.1543 170.646 27.6529C171.748 24.9133 172.91 21.8311 174.13 18.4066C174.339 18.4066 174.652 18.4363 175.068 18.4959C175.485 18.5555 175.798 18.5852 176.007 18.5852C176.245 18.5852 176.572 18.5555 176.989 18.4959C177.406 18.4363 177.719 18.4066 177.927 18.4066C179.446 22.6054 181.173 27.1764 183.109 32.1197C184.806 36.4972 186.608 41.0236 188.514 45.6989H190.658C190.598 46.1158 190.539 46.5476 190.479 46.9943C190.449 47.441 190.42 47.7983 190.39 48.0663C190.39 48.3641 190.42 48.781 190.479 49.3171C190.539 49.8531 190.598 50.2402 190.658 50.4784H189.988C189.452 49.8233 188.529 49.3915 187.218 49.183C185.908 49.0044 184.389 48.915 182.662 48.915H169.485C167.43 48.915 165.777 48.9895 164.527 49.1384C163.306 49.3171 162.412 49.7637 161.847 50.4784H161.177C161.266 50.1211 161.326 49.7637 161.355 49.4064C161.385 49.049 161.4 48.6024 161.4 48.0663C161.4 47.5899 161.37 47.1283 161.311 46.6816C161.251 46.2349 161.206 45.9074 161.177 45.6989ZM173.639 45.8776C174.83 45.8776 176.081 45.8627 177.391 45.8329C178.702 45.8031 179.893 45.7585 180.965 45.6989C179.982 42.7508 178.88 39.6687 177.659 36.4526C176.468 33.2365 175.292 30.0501 174.13 26.8935C172.79 30.199 171.54 33.3258 170.378 36.2739C169.038 39.6985 167.877 42.8401 166.894 45.6989C167.49 45.7287 168.562 45.7734 170.11 45.8329C171.659 45.8627 172.835 45.8776 173.639 45.8776ZM209.105 39.8027H198.698C197.745 42.4828 197.045 44.4631 196.598 45.7436C196.181 46.9943 195.839 48.0961 195.571 49.049L193.472 48.915L191.327 49.049L204.103 18.0939L205.8 18.2279L207.497 18.0939L219.96 49.0937C219.543 49.0937 218.813 49.0639 217.771 49.0044C216.729 48.9448 216.163 48.915 216.074 48.915C215.627 48.915 214.883 48.9448 213.84 49.0044C212.828 49.0639 212.307 49.0937 212.277 49.0937C211.592 46.9199 211.086 45.3416 210.758 44.3589C210.163 42.6019 209.612 41.0832 209.105 39.8027ZM199.904 37.0779H208.078L204.103 26.6702L199.904 37.0779ZM224.382 49.0937V18.4959C224.739 18.4959 225.29 18.5406 226.034 18.6299C226.779 18.7192 227.345 18.7639 227.732 18.7639C228.089 18.7639 228.64 18.7192 229.384 18.6299C230.129 18.5406 230.695 18.4959 231.082 18.4959V30.601C232.035 30.601 233.33 30.6457 234.968 30.735C236.606 30.7946 237.589 30.8244 237.916 30.8244C238.958 30.8244 239.807 30.8095 240.462 30.7797C243.053 30.6606 244.482 30.601 244.75 30.601V18.4959C245.108 18.4959 245.659 18.5406 246.403 18.6299C247.148 18.7192 247.699 18.7639 248.056 18.7639C248.443 18.7639 249.009 18.7192 249.753 18.6299C250.498 18.5406 251.064 18.4959 251.451 18.4959V49.0937C251.093 49.0937 250.542 49.0639 249.798 49.0044C249.053 48.9448 248.473 48.915 248.056 48.915C247.728 48.915 247.192 48.9448 246.448 49.0044C245.703 49.0639 245.138 49.0937 244.75 49.0937V34.1745C243.946 34.1745 242.621 34.1447 240.775 34.0852C238.958 34.0256 238.005 33.9958 237.916 33.9958C236.874 33.9958 235.683 34.0256 234.343 34.0852C233.003 34.1149 231.916 34.1447 231.082 34.1745V49.0937C230.725 49.0937 230.174 49.0639 229.429 49.0044C228.685 48.9448 228.119 48.915 227.732 48.915C227.374 48.915 226.824 48.9448 226.079 49.0044C225.335 49.0639 224.769 49.0937 224.382 49.0937Z" fill="#FF9700"/>
<path d="M43.5706 18.2425C43.455 18.1108 43.2826 17.9973 43.1003 18.036C42.9776 18.0602 42.9071 18.1751 42.8026 18.2317C42.5784 18.2395 42.3471 18.1297 42.1291 18.222C41.9408 18.3038 41.8804 18.5248 41.8615 18.7119C41.823 19.1781 41.8589 19.6539 41.985 20.1051C41.5342 20.2435 41.1703 20.5661 40.7221 20.7085C40.4108 20.8138 40.1372 21.0062 39.8893 21.2189C39.3841 21.6609 38.9645 22.194 38.6105 22.7628C38.1427 23.5258 37.7784 24.3706 37.6731 25.2665C37.5734 25.8267 37.4433 26.3825 37.2684 26.9238C37.0938 27.4509 36.8699 27.9721 36.52 28.4074C36.3799 28.5766 36.2305 28.7504 36.0252 28.8408C35.4017 29.1354 34.6979 29.18 34.0192 29.1811C32.1785 29.1607 30.3701 28.7411 28.5324 28.6756C28.1829 28.6681 27.8318 28.6793 27.486 28.737C26.9108 28.3995 26.4767 27.8746 26.092 27.3389C25.2992 26.1995 24.7135 24.9328 24.1612 23.6627C24.007 23.3257 23.8851 22.9704 23.682 22.6579C23.45 22.313 23.1479 21.9987 22.7661 21.8235C22.5578 21.7256 22.295 21.7223 22.1056 21.8655C21.8484 22.0578 21.7253 22.3755 21.6526 22.6787C21.547 23.1676 21.5444 23.694 21.7286 24.1642C21.3443 23.8349 20.8494 23.521 20.3224 23.6195C20.1596 23.7739 20.084 24.0005 20.0362 24.2155C19.9458 24.7088 20.0318 25.2222 20.2186 25.6831C19.8598 25.5417 19.4398 25.4551 19.0781 25.6359C18.9068 26.1243 18.9817 26.657 19.0951 27.15C19.2052 27.5941 19.3742 28.0287 19.6374 28.4051C19.4165 28.2478 19.1896 28.0934 19.0047 27.8921C18.862 28.295 18.9472 28.7314 19.0488 29.1332C19.2297 29.7946 19.5229 30.4214 19.8813 31.0036C20.2178 31.5419 20.6159 32.049 21.1063 32.4549C21.4302 32.7231 21.8046 32.9366 22.2146 33.0374C21.7472 33.0456 21.2501 33.0397 20.8294 32.8083C20.6782 33.1769 20.7523 33.5884 20.8791 33.9522C21.0733 34.5002 21.3921 34.9968 21.7668 35.4373C22.1571 35.8837 22.6278 36.2784 23.1868 36.4912C23.0763 37.3115 23.1186 38.1549 23.3402 38.9536C23.6127 39.9602 24.1553 40.878 24.8362 41.6603C25.6435 42.5881 26.632 43.3448 27.694 43.9557C28.2418 44.2607 28.8033 44.5606 29.4127 44.7213C29.2218 45.2607 29.0543 45.8083 28.8552 46.3447C28.76 46.6137 28.5843 46.841 28.4501 47.0899C28.3155 47.3257 28.4034 47.614 28.2922 47.8573C28.1599 48.1616 27.8993 48.3852 27.6417 48.5828C27.2562 48.8826 26.7366 49.0136 26.4437 49.4272C26.3637 49.524 26.3922 49.6508 26.43 49.7587C26.7514 49.4313 27.2136 49.3145 27.6332 49.1683C27.5153 49.4391 27.3915 49.7118 27.3378 50.0046C27.3107 50.1534 27.3437 50.3361 27.4838 50.4183C27.8077 50.6277 28.2077 50.7025 28.5031 50.9584C28.7125 51.1463 28.6858 51.4573 28.6925 51.7136C28.909 51.5153 29.1432 51.3096 29.2481 51.0273C29.346 50.723 29.1936 50.4004 28.9453 50.2204C29.1751 50.2717 29.4068 50.3186 29.6284 50.4C29.7919 50.4622 29.9698 50.4637 30.1366 50.5146C30.6399 50.6549 31.107 50.9432 31.6426 50.9491C31.8705 50.9867 32.147 50.8792 32.329 51.0656C32.4539 51.1675 32.4888 51.3331 32.4943 51.4871C32.6533 51.2717 32.7805 50.9982 32.7071 50.7259C32.637 50.5035 32.4172 50.3829 32.226 50.2777C31.8761 50.0969 31.4813 49.9998 31.0869 50.015C30.962 50.0202 30.8386 49.9916 30.7222 49.9481C30.4346 49.8435 30.1603 49.7044 29.8923 49.5571C30.1596 49.6043 30.4231 49.669 30.684 49.7438C30.8434 49.7885 30.9972 49.8614 31.1651 49.8688C31.2789 49.8792 31.3875 49.8364 31.4991 49.8275C31.5929 49.8577 31.66 49.9399 31.7467 49.9856C31.7463 49.8495 31.7397 49.701 31.647 49.5924C31.4769 49.3789 31.1959 49.3182 30.9439 49.2587C30.3082 49.1088 29.6488 49.1456 29.0064 49.0444C29.0698 48.5474 29.2526 48.0761 29.4068 47.6021C29.7174 46.6892 30.1388 45.8191 30.4665 44.9128C31.1637 44.9802 31.8664 44.9899 32.5596 45.0922C32.7701 45.4493 32.9454 45.8273 33.0814 46.2194C33.1689 46.4638 33.2227 46.7342 33.4054 46.9299C33.5247 47.0635 33.6956 47.1289 33.8624 47.1795C33.9199 47.6989 33.9858 48.2174 34.037 48.7379C34.0674 49.0329 33.931 49.3539 34.0907 49.6277C34.1949 49.8052 34.2953 50.0061 34.2538 50.2192C34.1915 50.5641 34.001 50.8729 33.7768 51.1359C33.5963 51.3305 33.4091 51.5269 33.2957 51.7709C33.2549 51.8598 33.2293 51.9655 33.2627 52.0615C33.2957 52.1262 33.3576 52.1693 33.4095 52.2184C33.4621 52.0935 33.5303 51.9737 33.6285 51.8792C33.8294 51.6764 34.0577 51.5042 34.2905 51.3409C34.3109 51.6035 34.3305 51.871 34.4195 52.1206C34.4729 52.2806 34.6122 52.4112 34.779 52.4424C35.2123 52.5287 35.666 52.4703 36.0923 52.6001C36.3721 52.6812 36.5285 52.9502 36.6694 53.1849C36.7765 52.958 36.8903 52.7147 36.8651 52.4573C36.7876 52.1158 36.4544 51.9182 36.1375 51.8397C36.4514 51.7962 36.768 51.7813 37.0841 51.7761C37.7636 51.6504 38.4645 51.8304 39.1379 51.6589C39.3251 51.6221 39.5023 51.5485 39.688 51.5086C39.9438 51.4938 40.1661 51.6504 40.3144 51.8472C40.3563 51.6217 40.3237 51.3721 40.1658 51.1973C40.016 51.0116 39.7681 50.9666 39.5468 50.9283C39.0957 50.8617 38.6246 50.8759 38.1909 51.0284C38.0649 51.0753 37.9307 51.0946 37.7965 51.0942C37.4403 51.0961 37.0856 51.0581 36.7328 51.0131C37.1346 50.9521 37.5412 50.9242 37.9474 50.922C38.1372 50.9209 38.3017 50.8234 38.4689 50.7483C38.5738 50.7635 38.6743 50.8018 38.7799 50.8152C38.6791 50.5883 38.45 50.4469 38.2061 50.4317C37.3128 50.3532 36.4611 50.6943 35.5926 50.8398C35.4888 50.6623 35.4388 50.4611 35.3877 50.2639C35.2094 49.5444 35.0963 48.8097 35.037 48.0709C35.014 47.8064 34.9881 47.5419 34.9592 47.2781C35.2527 47.3228 35.5541 47.4195 35.8513 47.3469C36.0797 47.2893 36.2261 47.0824 36.3169 46.8782C36.5189 46.4295 36.54 45.9284 36.6857 45.4627C36.8495 44.908 37.1401 44.3924 37.53 43.9661C37.9007 43.5524 38.347 43.2191 38.7806 42.8764C38.8522 42.8188 38.9311 42.7697 39.0182 42.7395C40.4478 42.2117 41.7514 41.3624 42.8467 40.3029C43.667 39.5172 44.3842 38.5894 44.7708 37.509C45.0829 36.6527 45.177 35.7308 45.1489 34.8235C45.1192 33.8477 44.971 32.8805 44.8027 31.9207C44.505 30.2444 44.144 28.5796 43.8746 26.8981C43.7652 26.182 43.6651 25.4603 43.6759 24.7341C43.846 24.9547 44.1196 25.0392 44.3786 25.1009C44.5725 25.1582 44.8019 25.1924 44.9743 25.0607C45.236 24.8669 45.3246 24.5354 45.4739 24.2613C45.5477 24.1065 45.6908 23.9964 45.7519 23.8349C45.8209 23.6672 45.8242 23.4826 45.8179 23.3037C46.1437 23.2442 46.4714 23.1631 46.8053 23.1862C46.9673 23.1943 47.1241 23.2371 47.2812 23.2743C47.2301 22.6966 46.8198 22.1151 46.2267 22.0128C46.3924 21.9518 46.5351 21.825 46.5863 21.6516C46.703 21.287 46.6285 20.8908 46.5066 20.5374C46.4295 20.338 46.3413 20.1275 46.1737 19.9876C46.0314 19.8786 45.852 19.9772 45.6926 19.9593C45.6129 19.8161 45.7037 19.6509 45.7167 19.5006C45.7501 19.3622 45.6685 19.2227 45.5507 19.1543C45.382 19.0561 45.1837 19.0103 44.9899 19.011C44.8453 19.091 44.7975 19.2726 44.6707 19.376C44.6414 19.1465 44.7486 18.8931 44.6103 18.6852C44.508 18.5226 44.3405 18.3541 44.134 18.3719C43.9539 18.4128 43.932 18.6305 43.8397 18.7611C43.7452 18.5907 43.7063 18.3883 43.5706 18.2425Z" fill="#FF9700"/>
<path fill-rule="evenodd" clip-rule="evenodd" d="M26.7109 0.694752C27.1303 0.614323 27.1867 0.60351 27.7892 0.904766C27.9185 1.16327 30.8913 5.42859 31.5375 6.33336C32.051 7.05214 32.4012 7.03674 33.2364 7.00004C33.4525 6.99054 33.7011 6.97962 33.9933 6.97962C34.8048 6.97962 35.1209 7.015 35.3305 6.88217C35.5215 6.7611 35.624 6.5003 35.9321 5.9456L38.6464 0.904766C38.8435 0.41209 38.8903 0.370122 39.0732 0.206202C39.1303 0.155102 39.2005 0.0921512 39.2927 0H39.9389L41.49 0.387757L43.041 0.775513C43.558 0.904763 44.1073 1.03401 44.6566 1.16326C45.2059 1.29252 45.7553 1.42177 46.2723 1.55103C46.8374 1.8336 46.8535 2.45937 46.8706 3.12822C46.877 3.37719 46.8835 3.63214 46.9186 3.87757V6.85037C46.981 7.10026 47.0133 7.68232 47.0446 8.24625C47.078 8.84903 47.1103 9.43111 47.1771 9.56467C47.3667 10.0387 47.9039 10.3041 48.4318 10.5649C48.6237 10.6597 48.8143 10.7538 48.9866 10.8572C49.8914 11.3742 50.2791 11.1157 51.0546 10.5987L55.837 8.01364C56.1525 7.82434 56.2523 7.75826 56.3621 7.72517C56.4773 7.69047 56.6033 7.69204 57.0002 7.62588C57.0002 7.75513 57.1295 7.75513 57.1295 7.75513H57.2587L58.5513 9.04766C58.6159 9.17691 58.6159 9.20922 58.632 9.22538C58.6482 9.24154 58.6805 9.24153 58.8098 9.30616C58.9056 9.59375 59.0726 9.73914 59.2579 9.90052C59.3225 9.95674 59.3892 10.0149 59.456 10.0817L59.7145 10.3402L60.1023 10.7279C60.1669 10.8572 60.1669 10.8895 60.1831 10.9057C60.1992 10.9218 60.2315 10.9218 60.3608 10.9864L61.5241 12.1497L61.6533 12.279C61.7363 12.3619 61.7127 12.3917 61.7194 12.4023C61.7232 12.4082 61.7363 12.4082 61.7826 12.4082C61.8108 12.4647 61.8514 12.5212 61.8949 12.5817C62.0504 12.7982 62.2431 13.0664 62.0411 13.5715L60.49 16.1565C59.0323 18.6884 58.4399 19.353 58.4694 19.9887C58.4897 20.4239 58.8015 20.8456 59.3268 21.8436C59.7082 22.7336 59.8395 22.7481 60.9508 22.8714L61.0071 22.8776L61.0075 22.8777C62.8169 23.0069 64.6263 23.1362 66.3064 23.2654C66.5255 23.2967 66.7294 23.3053 66.9164 23.3131C67.5014 23.3377 67.92 23.3552 68.1159 24.0409L68.8914 28.177C68.9561 28.3062 69.053 28.7263 69.1499 29.1464C69.2469 29.5665 69.3438 29.9865 69.4084 30.1158V30.762C69.2265 31.0046 69.1584 31.1049 69.0706 31.1831C68.9713 31.2716 68.8467 31.3317 68.5037 31.5375L65.0139 33.2178C64.8232 33.3036 64.6465 33.3824 64.4828 33.4554C62.4281 34.3719 62.4193 34.3758 62.2996 35.9321C62.2996 36.1121 62.2717 36.3477 62.2419 36.6003C62.2074 36.8919 62.1703 37.2061 62.1703 37.4832C62.1703 37.9163 62.4424 38.168 62.6827 38.3902C62.7293 38.4333 62.7746 38.4752 62.8166 38.5172L65.9186 40.7145L67.8574 42.2655C68.8114 42.9593 68.6016 43.3621 68.3602 43.8255C68.2418 44.0526 68.1159 44.2943 68.1159 44.592L67.9867 44.8505V44.9798L66.9527 47.8233L66.9526 47.8234C66.8233 48.0819 66.4356 48.8574 66.4356 49.2451C66.3807 49.3 66.3491 49.3316 66.331 49.3696C66.3064 49.421 66.3064 49.4842 66.3064 49.6329C66.1771 49.6329 66.1448 49.6652 66.0964 49.7136C66.0479 49.7621 65.9833 49.8267 65.7894 49.8914C65.5309 49.9775 65.3873 49.9488 65.2437 49.9201C65.1719 49.9057 65.1 49.8914 65.0139 49.8914C64.8676 49.8426 64.8317 49.8306 64.8298 49.8346C64.8267 49.8412 64.9164 49.8914 64.7554 49.8914L64.1091 49.7621C63.8506 49.7621 63.4628 49.7621 63.2043 49.6329H62.2996C62.0411 49.3744 60.6193 49.3744 60.1023 49.3744H59.8438C58.1635 48.9866 57.905 49.3744 57.2587 50.4084C57.0864 50.5807 57.0864 50.5807 57.0673 50.6382C57.0577 50.6669 57.0433 50.71 57.0002 50.7961C56.7417 50.9254 56.0955 51.9594 55.9662 52.6057C55.9662 52.8642 57.0002 55.32 57.1295 55.4492C57.1295 55.837 57.5172 57.0002 57.7757 57.2587C57.7757 57.5663 58.0044 58.0568 58.217 58.5126C58.3617 58.823 58.4989 59.1173 58.5513 59.3268C58.6578 60.0722 58.0623 60.4667 57.5602 60.7994C57.4528 60.8705 57.3498 60.9388 57.2587 61.0071C57.0002 61.2009 56.7417 61.4271 56.4832 61.6533C56.2247 61.8795 55.9662 62.1057 55.7077 62.2996L54.0274 63.5921C53.8852 63.6632 53.7723 63.7441 53.6646 63.8213C53.3806 64.0248 53.1323 64.2028 52.4764 64.1091C51.7655 63.4628 50.99 62.8489 50.2145 62.235C49.439 61.621 48.6635 61.0071 47.9526 60.3608C47.7729 60.235 47.6232 60.1242 47.4937 60.0284C46.692 59.4351 46.667 59.4166 45.109 59.973C44.8738 60.0738 44.6036 60.1659 44.3258 60.2606C43.5349 60.5302 42.6817 60.8209 42.3947 61.3948C42.2668 61.7145 42.0124 63.0466 41.741 64.4676C41.4638 65.9189 41.1689 67.4629 40.973 68.1159C40.8506 68.8503 40.6123 68.8893 39.9289 69.0011C39.8906 69.0073 39.8509 69.0138 39.8097 69.0207C39.4685 69.0207 39.1274 69.0567 38.8053 69.0907C38.5172 69.1211 38.2443 69.1499 38.0002 69.1499C37.3539 69.2792 36.7076 69.2792 36.0614 69.2792C35.7382 69.3438 35.3828 69.3438 35.0435 69.3438C34.7042 69.3438 34.3811 69.3438 34.1226 69.4084L33.6056 69.0207C33.4763 68.8914 33.4117 68.6329 33.3471 68.3744C33.2825 68.1159 33.2178 67.8574 33.0886 67.7282C33.0886 67.2112 32.3131 65.1431 32.0546 64.4969C31.9795 64.2718 31.9094 64.042 31.8403 63.8157C31.5523 62.8722 31.2833 61.9911 30.762 61.7826C30.1158 61.5241 28.0477 61.1363 27.2722 61.0071C26.5756 60.7748 26.2961 61.0641 25.9655 61.4064C25.928 61.4452 25.8899 61.4846 25.8504 61.5241L22.8776 64.6261L21.8436 65.6601C20.8982 66.5005 20.7212 66.4018 19.8554 65.919C19.6559 65.8078 19.4198 65.6761 19.1293 65.5309C18.6123 65.2724 18.2246 65.0139 17.8368 64.7554C17.6777 64.6758 17.3963 64.5106 17.0716 64.32C16.3409 63.8911 15.391 63.3336 15.1225 63.3336C14.8223 62.7331 14.832 62.6751 14.9117 62.1995C14.9349 62.0608 14.9641 61.8867 14.9933 61.6533C15.1225 61.5241 15.7688 58.939 15.898 58.422C15.9343 58.2406 16.0114 57.9572 16.1006 57.6292C16.329 56.7889 16.6372 55.6555 16.5443 55.1907C16.4412 54.8814 15.5155 53.9963 14.9484 53.454C14.8047 53.3165 14.6839 53.2011 14.6055 53.1227C13.9957 52.4451 13.7411 52.1227 13.4134 52.0066C13.116 51.9012 12.7584 51.9657 12.0205 52.0887C11.4388 52.2179 10.8894 52.3472 10.3401 52.4764C9.79078 52.6057 9.2415 52.7349 8.6599 52.8642C7.88439 53.1227 5.9456 53.7689 5.42859 53.1227C5.21513 52.9092 4.49244 51.4423 3.84275 50.1235C3.31229 49.0467 2.83049 48.0688 2.7143 47.9526C2.45579 47.1771 2.58504 47.0478 3.10205 46.5308L6.07485 43.6873C6.46261 43.4288 8.01364 42.007 8.14289 41.7485C8.27214 41.3607 7.88439 38.7757 7.62588 38.5172C7.75513 37.6124 7.36738 37.2246 6.59186 36.9661C6.46866 36.9251 6.28021 36.8449 6.06797 36.7545C5.61226 36.5605 5.04688 36.3199 4.78233 36.3199L3.10205 35.6736L0 34.5103V33.3471C0.0689345 33.2092 0.137869 32.4831 0.206803 31.757C0.267121 31.1216 0.327439 30.4863 0.387757 30.245C0.581586 28.4359 0.581635 27.6927 0.952952 27.3371C1.32446 26.9814 2.06761 27.0138 3.74831 26.7552C4.55377 26.5251 5.46166 26.3974 6.2896 26.2809C6.39169 26.2666 6.49255 26.2524 6.59186 26.2382C6.83862 26.1834 7.06793 26.146 7.28102 26.1112C8.07251 25.9822 8.64032 25.8896 9.04766 25.0749C9.8641 23.1452 10.2117 22.494 10.0905 21.9467C10.0006 21.541 9.65299 21.1923 9.04766 20.4219C8.9184 20.1633 8.6599 19.7756 8.40139 19.5171C8.29799 19.4137 8.19459 19.2689 8.09119 19.1242C7.93609 18.907 7.78098 18.6899 7.62588 18.6123C7.49663 18.3538 7.30275 18.0953 7.10887 17.8368C6.915 17.5783 6.72112 17.3198 6.59186 17.0613L5.9456 16.415C5.6871 16.0273 5.6871 15.898 5.6871 15.381C5.88098 15.1871 6.07485 14.9609 6.26873 14.7348C6.46261 14.5086 6.65649 14.2824 6.85037 14.0885C7.49663 13.1837 9.43541 10.4694 10.2109 10.0817C10.7455 9.99257 11.2187 10.2106 11.7152 10.4393C11.9389 10.5424 12.1673 10.6476 12.4082 10.7279L16.2858 12.4082C16.357 12.4388 16.4251 12.4685 16.4905 12.4971C17.2548 12.8311 17.6496 13.0036 18.4831 12.4082C19.7179 11.5102 20.2946 11.2215 20.5308 10.7589C20.8385 10.1562 20.5681 9.25838 20.4219 6.33336C20.266 3.99592 20.0632 3.30235 20.3231 2.95027C20.4943 2.71829 20.8664 2.63456 21.5851 2.32654L24.0409 1.55103C24.1055 1.55103 24.1702 1.51871 24.2348 1.4864C24.2994 1.45409 24.364 1.42177 24.4287 1.42177L24.8164 1.16327C25.2042 1.16327 25.9797 0.904766 26.2382 0.775513C26.44 0.74668 26.5904 0.717846 26.7109 0.694752ZM34.7036 54.9862C45.9048 54.9862 54.9853 45.9058 54.9853 34.7045C54.9853 23.5033 45.9048 14.4229 34.7036 14.4229C23.5023 14.4229 14.4219 23.5033 14.4219 34.7045C14.4219 45.9058 23.5023 54.9862 34.7036 54.9862Z" fill="#FF9700"/>
</svg>
