<svg width="66" height="66" viewBox="0 0 66 66" fill="none" xmlns="http://www.w3.org/2000/svg">
<path d="M32.7179 12.313L30.3883 15.8956L27.2729 13.0798C26.9452 12.7912 26.5366 12.6146 26.1034 12.5742C25.6703 12.5339 25.234 12.632 24.8548 12.8548L19.3489 16.1206C18.9667 16.347 18.6622 16.6893 18.4782 17.0991C18.2943 17.509 18.2402 17.9659 18.3236 18.4056L19.1384 22.5859L14.9541 22.867C14.5174 22.8981 14.0995 23.0672 13.7586 23.3509C13.4176 23.6345 13.1705 24.0185 13.0517 24.4495L11.3823 30.6797C11.2645 31.1148 11.2833 31.5751 11.4359 31.9954C11.5886 32.4158 11.8674 32.775 12.233 33.0222L15.7162 35.3578L12.9203 38.5707C12.6337 38.9086 12.4558 39.3277 12.4112 39.7703C12.3666 40.2128 12.4575 40.657 12.6714 41.0414L15.8067 46.6226C16.0241 47.0101 16.3559 47.3169 16.7554 47.4998C17.1548 47.6826 17.6019 47.7325 18.0337 47.6422L22.1396 46.7614L22.3658 51.0289C22.3911 51.4742 22.5519 51.8987 22.8259 52.2434C23.0998 52.588 23.4732 52.8357 23.8941 52.9519L29.9795 54.5825C30.4044 54.6976 30.8556 54.673 31.2693 54.5122C31.683 54.3515 32.0383 54.0627 32.2849 53.6867L34.6145 50.104L37.7299 52.9198C38.0576 53.2084 38.4662 53.3851 38.8993 53.4254C39.3325 53.4657 39.7688 53.3677 40.148 53.1448L45.6539 49.8791C46.0361 49.6526 46.3406 49.3104 46.5246 48.9005C46.7085 48.4906 46.7626 48.0338 46.6792 47.5941L45.8644 43.4138L50.0487 43.1327C50.489 43.1013 50.91 42.9296 51.2524 42.6419C51.5948 42.3542 51.8411 41.965 51.9567 41.5294L53.6261 35.2991C53.7438 34.8641 53.7251 34.4038 53.5724 33.9835C53.4198 33.5631 53.1409 33.2039 52.7754 32.9567L49.2922 30.6211L52.088 27.4082C52.3694 27.0715 52.5437 26.656 52.5872 26.2178C52.6307 25.7796 52.5414 25.3399 52.3314 24.9582L49.1961 19.3771C48.9787 18.9896 48.6469 18.6828 48.2474 18.4999C47.848 18.317 47.4009 18.2672 46.9691 18.3574L42.8632 19.2383L42.637 14.9708C42.6117 14.5255 42.4509 14.101 42.1769 13.7563C41.903 13.4116 41.5296 13.1639 41.1087 13.0477L35.0233 11.4171C34.5984 11.3021 34.1472 11.3267 33.7335 11.4874C33.3198 11.6482 32.9645 11.937 32.7179 12.313ZM38.5353 16.8099L38.6789 19.5193C38.7069 20.1411 38.8672 20.7475 39.1486 21.2967C39.43 21.8458 39.8259 22.3245 40.3087 22.6995C40.7915 23.0745 41.3496 23.3368 41.9445 23.4684C42.5394 23.5999 43.1567 23.5974 43.7536 23.4611L46.3832 22.897L48.0024 25.7792L46.1677 27.7583C45.7658 28.2214 45.4651 28.7661 45.286 29.3555C45.1068 29.9448 45.0534 30.5651 45.1293 31.1743C45.2052 31.7835 45.4087 32.3674 45.7259 32.8864C46.0432 33.4055 46.4668 33.8476 46.9681 34.1829L49.1797 35.6658L48.2949 38.9678L45.6382 39.1463C45.0286 39.1822 44.4325 39.3529 43.8911 39.6466C43.3497 39.9403 42.876 40.35 42.5028 40.8472C42.1297 41.3443 41.866 41.9172 41.7301 42.5259C41.5943 43.1346 41.5894 43.7646 41.716 44.3722L42.2378 47.0495L39.3944 48.7361L37.4767 46.8867C37.0279 46.4702 36.4946 46.1594 35.9136 45.9759C35.3327 45.7923 34.7181 45.7405 34.1125 45.8238C33.5069 45.9072 32.9248 46.1238 32.4065 46.4587C31.8882 46.7935 31.4461 47.2386 31.111 47.763L29.6319 50.0377L26.4675 49.1898L26.3239 46.4803C26.2959 45.8586 26.1356 45.2521 25.8542 44.703C25.5728 44.1539 25.1769 43.6752 24.6941 43.3002C24.2113 42.9252 23.6531 42.6628 23.0583 42.5313C22.4634 42.3998 21.8461 42.4023 21.2492 42.5386L18.6804 43.119L17.0612 40.2367L18.8351 38.2413C19.2485 37.7784 19.5594 37.2303 19.7461 36.6352C19.9327 36.0402 19.9908 35.4123 19.9162 34.7951C19.8417 34.178 19.6363 33.5864 19.3142 33.0613C18.9922 32.5362 18.5613 32.0903 18.0514 31.7544L15.8398 30.2715L16.7079 27.0318L19.3646 26.8533C19.9741 26.8174 20.5703 26.6467 21.1117 26.353C21.6531 26.0593 22.1268 25.6497 22.5 25.1525C22.8731 24.6553 23.1368 24.0825 23.2727 23.4738C23.4085 22.8651 23.4134 22.2351 23.2868 21.6274L22.765 18.9501L25.6084 17.2636L27.5261 19.1129C27.9751 19.5177 28.5053 19.8181 29.0807 19.994C29.6561 20.17 30.2633 20.2172 30.8611 20.1326C31.459 20.0479 32.0335 19.8334 32.5459 19.5035C33.0583 19.1736 33.4965 18.736 33.8309 18.2203L35.31 15.9457L38.5353 16.8099ZM24.3876 30.8257C23.9474 32.4687 23.9929 34.2023 24.5184 35.8072C25.0439 37.4122 26.0258 38.8165 27.34 39.8425C28.6541 40.8685 30.2414 41.4701 31.9012 41.5713C33.561 41.6725 35.2188 41.2687 36.6648 40.411C38.1108 39.5533 39.2802 38.2802 40.025 36.7527C40.7699 35.2252 41.0567 33.5119 40.8493 31.8295C40.6419 30.147 39.9496 28.571 38.8599 27.3007C37.7702 26.0304 36.332 25.1229 34.7272 24.6929C32.5753 24.1163 30.2771 24.4385 28.338 25.5886C26.3989 26.7388 24.978 28.6226 24.3876 30.8257ZM36.5583 34.0869C36.3382 34.9083 35.8851 35.6476 35.2563 36.2112C34.6275 36.7748 33.8512 37.1374 33.0257 37.2531C32.2002 37.3689 31.3624 37.2326 30.6184 36.8614C29.8744 36.4903 29.2575 35.901 28.8458 35.1681C28.4341 34.4352 28.246 33.5916 28.3053 32.744C28.3647 31.8963 28.6688 31.0827 29.1792 30.4061C29.6896 29.7294 30.3834 29.22 31.1729 28.9424C31.9623 28.6648 32.8119 28.6314 33.6143 28.8463C34.6903 29.1346 35.6049 29.8487 36.157 30.8315C36.7091 31.8143 36.8534 32.9853 36.5583 34.0869Z" fill="#1C1C1C"/>
<path fill-rule="evenodd" clip-rule="evenodd" d="M31.1992 0.0825L33.0142 0C50.3117 0 64.4742 13.31 65.8492 30.2225H61.7242C60.7617 19.8825 54.3267 11.165 45.3342 6.9025L41.6767 10.56L31.1992 0.0825ZM4.27734 35.75C5.26734 46.09 11.7023 54.835 20.6948 59.07L24.3523 55.44L34.8298 65.9175L33.0148 66C15.7173 66 1.55484 52.69 0.152344 35.75H4.27734Z" fill="#1C1C1C"/>
</svg>
