<svg width="59" height="66" viewBox="0 0 59 66" fill="none" xmlns="http://www.w3.org/2000/svg">
<path d="M12.311 44V42.075L15.7463 38.4471C16.0919 38.072 16.3436 37.7709 16.5015 37.5438C16.6595 37.3069 16.7385 37.0749 16.7385 36.8479C16.7385 36.5912 16.6546 36.3839 16.4867 36.226C16.3288 36.068 16.1067 35.989 15.8204 35.989C15.2083 35.989 14.7444 36.3494 14.4285 37.07L12.1481 35.7965C12.4837 35.0167 12.9773 34.4244 13.6288 34.0196C14.2804 33.6149 15.001 33.4125 15.7908 33.4125C16.7779 33.4125 17.622 33.7087 18.3229 34.301C19.0337 34.8834 19.389 35.683 19.389 36.6998C19.389 37.302 19.2459 37.8597 18.9596 38.3731C18.6832 38.8765 18.2735 39.4096 17.7306 39.9723L16.3238 41.4383H19.5667V44H12.311ZM27.685 42.7562C26.9348 43.7335 25.8834 44.2221 24.531 44.2221C23.1786 44.2221 22.1223 43.7335 21.3622 42.7562C20.6119 41.769 20.2368 40.456 20.2368 38.8173C20.2368 37.1786 20.6119 35.8706 21.3622 34.8933C22.1223 33.9061 23.1786 33.4125 24.531 33.4125C25.8834 33.4125 26.9348 33.9061 27.685 34.8933C28.4452 35.8706 28.8252 37.1786 28.8252 38.8173C28.8252 40.456 28.4452 41.769 27.685 42.7562ZM22.8874 38.8173C22.8874 40.7028 23.4352 41.6456 24.531 41.6456C25.6268 41.6456 26.1747 40.7028 26.1747 38.8173C26.1747 36.9318 25.6268 35.989 24.531 35.989C23.4352 35.989 22.8874 36.9318 22.8874 38.8173ZM37.0122 42.7562C36.2619 43.7335 35.2106 44.2221 33.8581 44.2221C32.5057 44.2221 31.4494 43.7335 30.6893 42.7562C29.939 41.769 29.5639 40.456 29.5639 38.8173C29.5639 37.1786 29.939 35.8706 30.6893 34.8933C31.4494 33.9061 32.5057 33.4125 33.8581 33.4125C35.2106 33.4125 36.2619 33.9061 37.0122 34.8933C37.7723 35.8706 38.1524 37.1786 38.1524 38.8173C38.1524 40.456 37.7723 41.769 37.0122 42.7562ZM32.2145 38.8173C32.2145 40.7028 32.7624 41.6456 33.8581 41.6456C34.9539 41.6456 35.5018 40.7028 35.5018 38.8173C35.5018 36.9318 34.9539 35.989 33.8581 35.989C32.7624 35.989 32.2145 36.9318 32.2145 38.8173ZM45.2287 38.5804C46.1468 39.1529 46.6058 39.9871 46.6058 41.0829C46.6058 42.0503 46.2702 42.8154 45.5989 43.3781C44.9276 43.9309 43.975 44.2073 42.741 44.2073C41.4972 44.2073 40.5396 43.9309 39.8683 43.3781C39.197 42.8154 38.8614 42.0503 38.8614 41.0829C38.8614 39.9871 39.3204 39.1529 40.2385 38.5804C39.5573 38.0769 39.2168 37.3859 39.2168 36.5073C39.2168 35.5399 39.5475 34.7847 40.2089 34.2417C40.8703 33.6988 41.7143 33.4273 42.741 33.4273C43.7578 33.4273 44.5969 33.7037 45.2583 34.2565C45.9197 34.7995 46.2504 35.5497 46.2504 36.5073C46.2504 37.3859 45.9098 38.0769 45.2287 38.5804ZM42.741 35.8262C42.4251 35.8262 42.1734 35.9101 41.9858 36.0779C41.8081 36.2358 41.7193 36.4481 41.7193 36.7146C41.7193 36.991 41.8081 37.2082 41.9858 37.3662C42.1734 37.5241 42.4251 37.6031 42.741 37.6031C43.0372 37.6031 43.279 37.5241 43.4666 37.3662C43.6541 37.1983 43.7479 36.9812 43.7479 36.7146C43.7479 36.4481 43.6541 36.2358 43.4666 36.0779C43.279 35.9101 43.0372 35.8262 42.741 35.8262ZM42.741 41.7788C43.1063 41.7788 43.4024 41.6851 43.6295 41.4975C43.8565 41.3001 43.97 41.0385 43.97 40.7127C43.97 40.3771 43.8565 40.1154 43.6295 39.9279C43.4024 39.7304 43.1063 39.6317 42.741 39.6317C42.3659 39.6317 42.0648 39.7304 41.8377 39.9279C41.6206 40.1154 41.512 40.3771 41.512 40.7127C41.512 41.0385 41.6206 41.3001 41.8377 41.4975C42.0648 41.6851 42.3659 41.7788 42.741 41.7788Z" fill="#1C1C1C"/>
<path d="M24.0267 47.5962V49.9506H21.1688V55H18.7108V47.5962H24.0267ZM28.2524 55.2073C27.1566 55.2073 26.2237 54.8322 25.4537 54.0819C24.6837 53.3218 24.2987 52.3938 24.2987 51.2981C24.2987 50.2023 24.6837 49.2793 25.4537 48.529C26.2237 47.7689 27.1566 47.3888 28.2524 47.3888C29.358 47.3888 30.2909 47.7689 31.051 48.529C31.821 49.2793 32.206 50.2023 32.206 51.2981C32.206 52.3938 31.821 53.3218 31.051 54.0819C30.2909 54.8322 29.358 55.2073 28.2524 55.2073ZM28.2524 52.8381C28.6867 52.8381 29.0421 52.6949 29.3185 52.4087C29.6048 52.1224 29.7479 51.7522 29.7479 51.2981C29.7479 50.844 29.6048 50.4738 29.3185 50.1875C29.0421 49.9012 28.6867 49.7581 28.2524 49.7581C27.8279 49.7581 27.4725 49.9012 27.1862 50.1875C26.9098 50.4738 26.7716 50.844 26.7716 51.2981C26.7716 51.7522 26.9098 52.1224 27.1862 52.4087C27.4725 52.6949 27.8279 52.8381 28.2524 52.8381ZM40.1173 52.6752H41.0798V56.9842H38.7105V55H34.8605V56.9842H32.4913V52.6752H33.3798C33.7549 52.0631 33.9424 51.224 33.9424 50.1579V47.5962H40.1173V52.6752ZM35.9267 52.6752H37.7184V49.7877H36.3413V50.1579C36.3413 51.1451 36.2031 51.9842 35.9267 52.6752Z" fill="#1C1C1C"/>
<path d="M50.15 6H47.2V3C47.2 2.20435 46.8892 1.44129 46.336 0.87868C45.7827 0.31607 45.0324 0 44.25 0C43.4676 0 42.7173 0.31607 42.164 0.87868C41.6108 1.44129 41.3 2.20435 41.3 3V6H17.7V3C17.7 2.20435 17.3892 1.44129 16.836 0.87868C16.2827 0.31607 15.5324 0 14.75 0C13.9676 0 13.2173 0.31607 12.664 0.87868C12.1108 1.44129 11.8 2.20435 11.8 3V6H8.85C6.50283 6 4.2518 6.94821 2.59211 8.63604C0.932408 10.3239 0 12.6131 0 15V57C0 59.3869 0.932408 61.6761 2.59211 63.364C4.2518 65.0518 6.50283 66 8.85 66H50.15C52.4972 66 54.7482 65.0518 56.4079 63.364C58.0676 61.6761 59 59.3869 59 57V15C59 12.6131 58.0676 10.3239 56.4079 8.63604C54.7482 6.94821 52.4972 6 50.15 6ZM53.1 57C53.1 57.7957 52.7892 58.5587 52.236 59.1213C51.6827 59.6839 50.9324 60 50.15 60H8.85C8.06761 60 7.31727 59.6839 6.76404 59.1213C6.2108 58.5587 5.9 57.7957 5.9 57V30H53.1V57ZM53.1 24H5.9V15C5.9 14.2044 6.2108 13.4413 6.76404 12.8787C7.31727 12.3161 8.06761 12 8.85 12H11.8V15C11.8 15.7956 12.1108 16.5587 12.664 17.1213C13.2173 17.6839 13.9676 18 14.75 18C15.5324 18 16.2827 17.6839 16.836 17.1213C17.3892 16.5587 17.7 15.7956 17.7 15V12H41.3V15C41.3 15.7956 41.6108 16.5587 42.164 17.1213C42.7173 17.6839 43.4676 18 44.25 18C45.0324 18 45.7827 17.6839 46.336 17.1213C46.8892 16.5587 47.2 15.7956 47.2 15V12H50.15C50.9324 12 51.6827 12.3161 52.236 12.8787C52.7892 13.4413 53.1 14.2044 53.1 15V24Z" fill="#1C1C1C"/>
</svg>
