<svg width="53" height="66" viewBox="0 0 53 66" fill="none" xmlns="http://www.w3.org/2000/svg">
<path d="M51.7744 5.44128C51.3895 5.13105 50.9398 4.91071 50.4583 4.79646C49.9768 4.68221 49.4757 4.67695 48.9919 4.78107C45.4522 5.52031 41.7982 5.52973 38.2548 4.80874C34.7114 4.08775 31.3536 2.65162 28.3881 0.588757C27.8336 0.205417 27.1749 0 26.5 0C25.8251 0 25.1664 0.205417 24.6119 0.588757C21.6464 2.65162 18.2886 4.08775 14.7452 4.80874C11.2018 5.52973 7.54776 5.52031 4.00814 4.78107C3.52431 4.67695 3.02322 4.68221 2.5417 4.79646C2.06018 4.91071 1.61047 5.13105 1.22564 5.44128C0.841325 5.75196 0.531744 6.14452 0.31965 6.59009C0.107555 7.03566 -0.0016635 7.52292 1.91512e-05 8.01608V32.6088C-0.00292578 37.3416 1.12883 42.0067 3.30104 46.2155C5.47325 50.4243 8.62305 54.055 12.4881 56.8054L24.5788 65.388C25.1398 65.7861 25.8113 66 26.5 66C27.1887 66 27.8602 65.7861 28.4212 65.388L40.5119 56.8054C44.377 54.055 47.5268 50.4243 49.699 46.2155C51.8712 42.0067 53.0029 37.3416 53 32.6088V8.01608C53.0017 7.52292 52.8924 7.03566 52.6803 6.59009C52.4683 6.14452 52.1587 5.75196 51.7744 5.44128ZM46.375 32.6088C46.3775 36.2886 45.4981 39.9159 43.81 43.1887C42.1218 46.4614 39.6737 49.2851 36.6694 51.4247L26.5 58.6539L16.3306 51.4247C13.3263 49.2851 10.8782 46.4614 9.19004 43.1887C7.50188 39.9159 6.62247 36.2886 6.62501 32.6088V11.8123C13.5694 12.4046 20.5244 10.7989 26.5 7.22383C32.4756 10.7989 39.4306 12.4046 46.375 11.8123V32.6088Z" fill="#1C1C1C"/>
<path d="M16.435 18.9H21.517V42H15.61V25.104L11.584 26.127L10.165 21.144L16.435 18.9ZM24.3571 42V37.71L32.0131 29.625C32.7831 28.789 33.3441 28.118 33.6961 27.612C34.0481 27.084 34.2241 26.567 34.2241 26.061C34.2241 25.489 34.0371 25.027 33.6631 24.675C33.3111 24.323 32.8161 24.147 32.1781 24.147C30.8141 24.147 29.7801 24.95 29.0761 26.556L23.9941 23.718C24.7421 21.98 25.8421 20.66 27.2941 19.758C28.7461 18.856 30.3521 18.405 32.1121 18.405C34.3121 18.405 36.1931 19.065 37.7551 20.385C39.3391 21.683 40.1311 23.465 40.1311 25.731C40.1311 27.073 39.8121 28.316 39.1741 29.46C38.5581 30.582 37.6451 31.77 36.4351 33.024L33.3001 36.291H40.5271V42H24.3571Z" fill="#1C1C1C"/>
</svg>
