<svg width="54" height="54" viewBox="0 0 54 54" fill="none" xmlns="http://www.w3.org/2000/svg">
<path fill-rule="evenodd" clip-rule="evenodd" d="M0 27C0 12.096 12.069 0 26.973 0C41.904 0 54 12.096 54 27C54 41.904 41.904 54 26.973 54C12.069 54 0 41.904 0 27ZM37.7182 16.1999H45.6832C43.0912 11.7449 38.9602 8.28889 33.9922 6.58789C35.6122 9.58489 36.8542 12.8249 37.7182 16.1999ZM27.0007 5.50781C29.2418 8.74781 30.9967 12.3388 32.1577 16.1998H21.8438C23.0047 12.3388 24.7598 8.74781 27.0007 5.50781ZM5.39844 26.9996C5.39844 28.8626 5.66844 30.6716 6.10044 32.3996H15.2264C15.0104 30.6176 14.8484 28.8356 14.8484 26.9996C14.8484 25.1636 15.0104 23.3816 15.2264 21.5996H6.10044C5.66844 23.3276 5.39844 25.1366 5.39844 26.9996ZM8.31641 37.7998H16.2814C17.1454 41.1748 18.3874 44.4148 20.0074 47.4118C15.0394 45.7108 10.9084 42.2818 8.31641 37.7998ZM8.31641 16.1999H16.2814C17.1454 12.8249 18.3874 9.58489 20.0074 6.58789C15.0394 8.28889 10.9084 11.7179 8.31641 16.1999ZM27.0007 48.4918C24.7598 45.2518 23.0047 41.6608 21.8438 37.7998H32.1577C30.9967 41.6608 29.2418 45.2518 27.0007 48.4918ZM20.682 32.3996H33.318C33.561 30.6176 33.75 28.8356 33.75 26.9996C33.75 25.1636 33.561 23.3546 33.318 21.5996H20.682C20.439 23.3546 20.25 25.1636 20.25 26.9996C20.25 28.8356 20.439 30.6176 20.682 32.3996ZM33.9922 47.4118C35.6122 44.4148 36.8542 41.1748 37.7182 37.7998H45.6832C43.0912 42.2548 38.9602 45.7108 33.9922 47.4118ZM39.1514 26.9996C39.1514 28.8356 38.9894 30.6176 38.7734 32.3996H47.8994C48.3314 30.6716 48.6014 28.8626 48.6014 26.9996C48.6014 25.1366 48.3314 23.3276 47.8994 21.5996H38.7734C38.9894 23.3816 39.1514 25.1636 39.1514 26.9996Z" fill="#1C1C1C"/>
</svg>
