<svg width="146" height="146" viewBox="0 0 146 146" fill="none" xmlns="http://www.w3.org/2000/svg">
<path d="M91.0288 38.1124C90.7872 37.8373 90.4271 37.6003 90.0461 37.6811C89.7898 37.7316 89.6427 37.9718 89.4243 38.0899C88.9558 38.1062 88.4726 37.8769 88.0172 38.0697C87.6238 38.2407 87.4976 38.7024 87.4581 39.0933C87.3776 40.0672 87.4527 41.0612 87.716 42.004C86.7743 42.2931 86.0139 42.967 85.0777 43.2647C84.4272 43.4846 83.8557 43.8865 83.3376 44.331C82.2821 45.2544 81.4055 46.3681 80.666 47.5565C79.6887 49.1506 78.9275 50.9157 78.7075 52.7873C78.4992 53.9578 78.2274 55.1189 77.8619 56.2498C77.4972 57.3511 77.0294 58.44 76.2984 59.3494C76.0057 59.703 75.6936 60.066 75.2646 60.2548C73.9621 60.8704 72.4915 60.9637 71.0736 60.966C67.228 60.9233 63.4497 60.0465 59.6103 59.9098C58.8801 59.8942 58.1467 59.9175 57.4242 60.038C56.2224 59.3331 55.3156 58.2364 54.5117 57.1172C52.8553 54.7365 51.6318 52.0901 50.4779 49.4366C50.1558 48.7325 49.901 47.9902 49.4767 47.3373C48.9919 46.6169 48.3608 45.9601 47.5631 45.594C47.1279 45.3896 46.5789 45.3826 46.1832 45.6819C45.6458 46.0837 45.3887 46.7474 45.2369 47.3809C45.0162 48.4021 45.0108 49.5019 45.3956 50.4843C44.5926 49.7965 43.5588 49.1405 42.4576 49.3465C42.1176 49.669 41.9597 50.1424 41.8598 50.5916C41.6708 51.6222 41.8505 52.6948 42.2408 53.6577C41.4912 53.3624 40.6138 53.1813 39.858 53.559C39.5002 54.5795 39.6566 55.6925 39.8936 56.7223C40.1236 57.6504 40.4767 58.5582 41.0265 59.3447C40.565 59.0159 40.0911 58.6934 39.7046 58.2729C39.4065 59.1147 39.5846 60.0263 39.7968 60.8657C40.1747 62.2476 40.7872 63.5573 41.5361 64.7736C42.2392 65.8983 43.0709 66.9576 44.0954 67.8056C44.7722 68.366 45.5544 68.8121 46.4109 69.0227C45.4343 69.0398 44.3959 69.0274 43.517 68.544C43.201 69.3142 43.3559 70.1738 43.6207 70.9339C44.0265 72.0788 44.6925 73.1164 45.4754 74.0366C46.2908 74.9693 47.2743 75.7939 48.4421 76.2385C48.2113 77.9523 48.2996 79.7143 48.7627 81.383C49.3318 83.4861 50.4655 85.4035 51.8881 87.0381C53.5747 88.9765 55.64 90.5573 57.8587 91.8335C59.0032 92.4709 60.1764 93.0973 61.4495 93.4331C61.0507 94.56 60.7007 95.7041 60.2848 96.8249C60.0858 97.3868 59.7187 97.8617 59.4384 98.3817C59.1573 98.8744 59.3408 99.4768 59.1085 99.9851C58.8321 100.621 58.2877 101.088 57.7495 101.501C56.9441 102.127 55.8584 102.401 55.2466 103.265C55.0794 103.467 55.139 103.732 55.218 103.957C55.8894 103.274 56.855 103.029 57.7317 102.724C57.4854 103.29 57.2268 103.86 57.1145 104.471C57.0579 104.782 57.1269 105.164 57.4196 105.336C58.0964 105.773 58.9319 105.929 59.5491 106.464C59.9867 106.857 59.9309 107.506 59.9449 108.042C60.3971 107.628 60.8865 107.198 61.1057 106.608C61.3101 105.972 60.9918 105.298 60.473 104.922C60.9531 105.029 61.4371 105.127 61.9002 105.297C62.2417 105.427 62.6134 105.43 62.9619 105.537C64.0135 105.83 64.9892 106.432 66.1082 106.445C66.5845 106.523 67.1622 106.298 67.5424 106.688C67.8034 106.901 67.8762 107.247 67.8878 107.568C68.22 107.118 68.4856 106.547 68.3323 105.978C68.1859 105.513 67.7267 105.262 67.3271 105.042C66.5961 104.664 65.7714 104.461 64.9474 104.493C64.6864 104.504 64.4286 104.444 64.1854 104.353C63.5845 104.135 63.0114 103.844 62.4516 103.536C63.0099 103.635 63.5605 103.77 64.1056 103.926C64.4386 104.02 64.76 104.172 65.1108 104.188C65.3485 104.209 65.5754 104.12 65.8085 104.101C66.0044 104.164 66.1446 104.336 66.3258 104.432C66.325 104.147 66.3111 103.837 66.1175 103.61C65.7621 103.164 65.1751 103.037 64.6485 102.913C63.3204 102.6 61.9428 102.677 60.6008 102.465C60.7332 101.427 61.115 100.442 61.4371 99.4519C62.086 97.5446 62.9665 95.7267 63.6511 93.8333C65.1077 93.974 66.5759 93.9942 68.0241 94.208C68.4639 94.9541 68.8302 95.7438 69.1144 96.563C69.2972 97.0736 69.4094 97.6386 69.7912 98.0475C70.0406 98.3265 70.3976 98.4633 70.746 98.569C70.8661 99.654 71.0039 100.737 71.1108 101.825C71.1743 102.441 70.8893 103.112 71.2231 103.684C71.4407 104.055 71.6505 104.474 71.5638 104.92C71.4337 105.64 71.0357 106.285 70.5672 106.835C70.19 107.241 69.799 107.652 69.562 108.162C69.4768 108.347 69.4234 108.568 69.4931 108.769C69.562 108.904 69.6913 108.994 69.7997 109.097C69.9097 108.835 70.0522 108.585 70.2574 108.388C70.6771 107.964 71.1541 107.604 71.6405 107.263C71.683 107.812 71.7241 108.371 71.9099 108.892C72.0215 109.226 72.3126 109.499 72.6611 109.564C73.5664 109.745 74.5142 109.623 75.4048 109.894C75.9894 110.063 76.3162 110.625 76.6105 111.116C76.8343 110.642 77.072 110.133 77.0194 109.595C76.8575 108.882 76.1613 108.469 75.4992 108.305C76.1551 108.214 76.8165 108.183 77.477 108.172C78.8965 107.91 80.3609 108.286 81.7679 107.928C82.159 107.851 82.5291 107.697 82.9171 107.614C83.4514 107.582 83.9161 107.91 84.2258 108.321C84.3133 107.85 84.2452 107.328 83.9153 106.963C83.6024 106.575 83.0844 106.481 82.6221 106.401C81.6796 106.262 80.6954 106.291 79.7894 106.61C79.5261 106.708 79.2457 106.749 78.9654 106.748C78.2212 106.752 77.4801 106.672 76.7429 106.578C77.5823 106.451 78.4318 106.393 79.2806 106.388C79.6771 106.386 80.0209 106.182 80.3701 106.025C80.5893 106.057 80.7992 106.137 81.0199 106.165C80.8092 105.691 80.3307 105.395 79.8211 105.363C77.9548 105.2 76.1753 105.912 74.3609 106.216C74.1441 105.845 74.0395 105.425 73.9326 105.013C73.5602 103.51 73.324 101.975 73.2001 100.431C73.1521 99.8786 73.0979 99.326 73.0375 98.7749C73.6508 98.8682 74.2803 99.0703 74.9014 98.9187C75.3784 98.7983 75.6843 98.3661 75.874 97.9394C76.2961 97.0021 76.3402 95.9552 76.6446 94.9821C76.9868 93.8232 77.594 92.746 78.4086 91.8553C79.183 90.991 80.1154 90.2946 81.0214 89.5788C81.1709 89.4583 81.3358 89.3557 81.5178 89.2928C84.5046 88.1899 87.2281 86.4155 89.5165 84.202C91.2302 82.5605 92.7286 80.6221 93.5363 78.365C94.1883 76.5758 94.385 74.6498 94.3262 72.7542C94.2642 70.7155 93.9545 68.6947 93.6029 66.6895C92.9811 63.1873 92.2268 59.7092 91.6638 56.1962C91.4354 54.7 91.2263 53.1922 91.2488 51.675C91.6042 52.1359 92.1757 52.3124 92.717 52.4414C93.122 52.5611 93.6014 52.6326 93.9615 52.3574C94.5082 51.9525 94.6932 51.26 95.0053 50.6872C95.1594 50.3639 95.4583 50.1338 95.5861 49.7965C95.7302 49.446 95.7371 49.0605 95.724 48.6866C96.4046 48.5623 97.0892 48.3928 97.7869 48.441C98.1253 48.4581 98.4529 48.5475 98.7812 48.6252C98.6744 47.4182 97.8171 46.2034 96.5781 45.9896C96.9243 45.8622 97.2224 45.5971 97.3293 45.2349C97.5732 44.4733 97.4176 43.6455 97.1628 42.9072C97.0017 42.4906 96.8174 42.0506 96.4674 41.7584C96.17 41.5307 95.7952 41.7366 95.4622 41.6993C95.2957 41.4001 95.4854 41.055 95.5126 40.741C95.5822 40.4519 95.4119 40.1604 95.1656 40.0174C94.8133 39.8122 94.399 39.7166 93.994 39.7182C93.692 39.8853 93.5921 40.2646 93.3272 40.4807C93.266 40.0011 93.4898 39.4718 93.201 39.0373C92.9873 38.6977 92.6372 38.3456 92.2059 38.3829C91.8296 38.4684 91.7839 38.9231 91.591 39.1959C91.3936 38.8399 91.3123 38.4171 91.0288 38.1124Z" fill="#FF9700"/>
<path fill-rule="evenodd" clip-rule="evenodd" d="M55.8055 1.45151C56.6818 1.28347 56.7997 1.26088 58.0585 1.89028C58.3285 2.43035 64.5394 11.3417 65.8896 13.2319C66.9622 14.7336 67.694 14.7015 69.4389 14.6248C69.8904 14.6049 70.4097 14.5821 71.0203 14.5821C72.7156 14.5821 73.3762 14.656 73.814 14.3785C74.2131 14.1256 74.4271 13.5807 75.0709 12.4218L80.7418 1.89028C81.1535 0.860955 81.2513 0.773276 81.6335 0.430807C81.7526 0.324047 81.8994 0.192526 82.0919 0H83.4421L86.6826 0.810118L89.9231 1.62024C91.0032 1.89027 92.1509 2.16031 93.2986 2.43035C94.4462 2.70039 95.5939 2.97043 96.6741 3.24047C97.8548 3.83083 97.8883 5.13823 97.9241 6.53562C97.9374 7.05578 97.951 7.58842 98.0243 8.10118V14.3121C98.1548 14.8342 98.2222 16.0503 98.2876 17.2284C98.3574 18.4878 98.4248 19.7039 98.5644 19.9829C98.9605 20.9732 100.083 21.5277 101.186 22.0726C101.587 22.2706 101.985 22.4674 102.345 22.6833C104.235 23.7635 105.045 23.2234 106.666 22.1432L116.657 16.7424C117.316 16.347 117.525 16.2089 117.754 16.1398C117.995 16.0673 118.258 16.0705 119.087 15.9323C119.087 16.2024 119.357 16.2024 119.357 16.2024H119.627L122.328 18.9028C122.463 19.1728 122.463 19.2403 122.497 19.2741C122.53 19.3078 122.598 19.3078 122.868 19.4428C123.068 20.0437 123.417 20.3474 123.804 20.6846C123.939 20.802 124.079 20.9235 124.218 21.0631L124.758 21.6031L125.568 22.4133C125.703 22.6833 125.703 22.7508 125.737 22.7846C125.771 22.8183 125.838 22.8183 126.108 22.9533L128.539 25.3837L128.809 25.6537C128.982 25.8271 128.933 25.8892 128.947 25.9114C128.955 25.9238 128.982 25.9238 129.079 25.9238C129.138 26.0418 129.223 26.1597 129.313 26.2862C129.638 26.7385 130.041 27.2989 129.619 28.3541L126.378 33.7549C123.333 39.0446 122.095 40.4332 122.157 41.7613C122.199 42.6706 122.851 43.5515 123.948 45.6366C124.745 47.496 125.019 47.5264 127.341 47.7839L127.459 47.797C131.239 48.067 135.02 48.337 138.53 48.6071C138.988 48.6725 139.414 48.6904 139.805 48.7067C141.027 48.7581 141.901 48.7948 142.311 50.2273L143.931 58.8686C144.066 59.1386 144.269 60.0162 144.471 60.8939C144.674 61.7715 144.876 62.6491 145.011 62.9192V64.2694C144.631 64.7762 144.489 64.9857 144.305 65.1491C144.098 65.3339 143.838 65.4596 143.121 65.8896L135.83 69.4001C135.431 69.5794 135.062 69.744 134.72 69.8965C130.428 71.8112 130.409 71.8194 130.159 75.0709C130.159 75.4469 130.101 75.9392 130.038 76.4669C129.966 77.0761 129.889 77.7325 129.889 78.3114C129.889 79.2163 130.457 79.7421 130.959 80.2065C131.057 80.2964 131.151 80.3841 131.239 80.4717L137.72 85.0624L141.771 88.3029C143.764 89.7524 143.325 90.5941 142.821 91.562C142.574 92.0367 142.311 92.5416 142.311 93.1636L142.041 93.7036V93.9737L139.88 99.9145L139.88 99.9147C139.61 100.455 138.8 102.075 138.8 102.885C138.685 103 138.619 103.066 138.582 103.145C138.53 103.253 138.53 103.385 138.53 103.695C138.26 103.695 138.193 103.763 138.091 103.864C137.99 103.965 137.855 104.1 137.45 104.235C136.91 104.415 136.61 104.355 136.31 104.295C136.16 104.265 136.01 104.235 135.83 104.235C135.524 104.133 135.449 104.108 135.445 104.117C135.439 104.13 135.626 104.235 135.29 104.235L133.939 103.965C133.399 103.965 132.589 103.965 132.049 103.695H130.159C129.619 103.155 126.648 103.155 125.568 103.155H125.028C121.518 102.345 120.978 103.155 119.627 105.315C119.343 105.6 119.283 105.66 119.251 105.731C119.222 105.796 119.215 105.87 119.087 106.125C118.547 106.395 117.197 108.556 116.927 109.906C116.927 110.446 119.087 115.577 119.357 115.847C119.357 116.657 120.167 119.087 120.708 119.627C120.708 120.27 121.185 121.295 121.629 122.247C121.932 122.896 122.218 123.51 122.328 123.948C122.55 125.505 121.306 126.33 120.257 127.025C120.033 127.173 119.818 127.316 119.627 127.459C119.087 127.864 118.547 128.336 118.007 128.809C117.467 129.281 116.927 129.754 116.387 130.159L112.876 132.859C112.579 133.008 112.343 133.177 112.118 133.338C111.525 133.763 111.006 134.135 109.636 133.939C108.151 132.589 106.53 131.307 104.91 130.024C103.29 128.741 101.67 127.459 100.185 126.108C99.8092 125.846 99.4964 125.614 99.226 125.414C97.5509 124.174 97.4987 124.136 94.2437 125.298C93.7523 125.509 93.1878 125.701 92.6073 125.899C90.9549 126.462 89.1724 127.07 88.5729 128.269C88.3057 128.937 87.7741 131.72 87.2071 134.688C86.6279 137.721 86.0118 140.946 85.6025 142.311C85.3468 143.845 84.8489 143.926 83.4211 144.16C83.3411 144.173 83.2581 144.187 83.1721 144.201C82.4594 144.201 81.7467 144.276 81.0737 144.347C80.4717 144.411 79.9015 144.471 79.3916 144.471C78.0414 144.741 76.6912 144.741 75.341 144.741C74.6659 144.876 73.9233 144.876 73.2144 144.876C72.5056 144.876 71.8305 144.876 71.2904 145.011L70.2102 144.201C69.9402 143.931 69.8052 143.391 69.6702 142.851C69.5351 142.311 69.4001 141.771 69.1301 141.501C69.1301 140.42 67.5098 136.1 66.9697 134.75C66.813 134.279 66.6664 133.799 66.5221 133.326C65.9204 131.355 65.3584 129.514 64.2694 129.079C62.9192 128.539 58.5985 127.729 56.9783 127.459C55.5229 126.973 54.939 127.578 54.2481 128.293C54.1699 128.374 54.0903 128.456 54.0079 128.539L47.797 135.02L45.6366 137.18C43.6615 138.936 43.2915 138.729 41.4828 137.721C41.0659 137.488 40.5727 137.213 39.9658 136.91C38.8858 136.37 38.0757 135.83 37.2656 135.29L37.2654 135.29C36.9331 135.124 36.3451 134.778 35.6666 134.38C34.14 133.484 32.1555 132.319 31.5946 132.319C30.9673 131.065 30.9876 130.943 31.1541 129.95C31.2027 129.66 31.2636 129.296 31.3246 128.809C31.5946 128.539 32.9448 123.138 33.2148 122.058C33.2907 121.679 33.4516 121.087 33.638 120.401C34.1153 118.646 34.7593 116.278 34.565 115.307C34.3496 114.661 32.4158 112.811 31.231 111.678C30.9306 111.391 30.6783 111.15 30.5144 110.986C29.2404 109.571 28.7084 108.897 28.0238 108.654C27.4024 108.434 26.6553 108.569 25.1137 108.826C23.8985 109.096 22.7508 109.366 21.6031 109.636C20.4555 109.906 19.3078 110.176 18.0926 110.446C16.4724 110.986 12.4218 112.336 11.3417 110.986C10.8957 110.54 9.3858 107.475 8.02845 104.72C6.92017 102.471 5.91359 100.427 5.67083 100.185C5.13075 98.5643 5.40079 98.2943 6.48094 97.2141L12.6918 91.2733C13.502 90.7332 16.7424 87.7628 17.0125 87.2227C17.2825 86.4126 16.4724 81.0118 15.9323 80.4717C16.2024 78.5814 15.3922 77.7713 13.772 77.2312C13.5146 77.1454 13.1209 76.9778 12.6775 76.7891C11.7254 76.3838 10.5442 75.881 9.99146 75.881L6.48094 74.5308L0 72.1005V69.6701C0.144021 69.3821 0.288042 67.8651 0.432063 66.3481C0.558081 65.0207 0.684099 63.6933 0.810118 63.1892C1.21507 59.4096 1.21518 57.8567 1.99095 57.1139C2.76711 56.3707 4.31974 56.4384 7.83114 55.8981C9.51388 55.4174 11.4106 55.1506 13.1404 54.9073C13.3537 54.8773 13.5645 54.8476 13.772 54.818C14.2875 54.7034 14.7666 54.6253 15.2118 54.5527C16.8654 54.2831 18.0517 54.0897 18.9028 52.3876C20.6085 48.3559 21.3347 46.9955 21.0815 45.8521C20.8937 45.0043 20.1674 44.2758 18.9028 42.6662C18.6327 42.1261 18.0926 41.316 17.5526 40.7759C17.3365 40.5599 17.1205 40.2575 16.9045 39.955C16.5804 39.5014 16.2564 39.0477 15.9323 38.8857C15.6623 38.3456 15.2572 37.8055 14.8522 37.2654C14.4471 36.7253 14.042 36.1853 13.772 35.6452L12.4218 34.295C11.8817 33.4849 11.8817 33.2148 11.8817 32.1347C12.2868 31.7296 12.6919 31.257 13.0969 30.7845C13.502 30.3119 13.907 29.8393 14.3121 29.4343C15.6623 27.544 19.7129 21.8732 21.3331 21.0631C22.45 20.8769 23.4386 21.3324 24.4758 21.8103C24.9432 22.0256 25.4205 22.2455 25.9238 22.4133L34.025 25.9238C34.1738 25.9876 34.316 26.0497 34.4526 26.1094C36.0495 26.8072 36.8742 27.1676 38.6156 25.9238C41.1954 24.0476 42.4003 23.4444 42.8937 22.4779C43.5366 21.2188 42.9718 19.343 42.6662 13.2319C42.3406 8.34844 41.917 6.89941 42.4599 6.16384C42.8176 5.67917 43.595 5.50425 45.0966 4.86071L50.2273 3.24047C50.3623 3.24047 50.4974 3.17296 50.6324 3.10545C50.7674 3.03794 50.9024 2.97043 51.0374 2.97043L51.8475 2.43035C52.6577 2.43035 54.2779 1.89028 54.818 1.62024C55.2397 1.56 55.5538 1.49975 55.8055 1.45151ZM72.5061 114.879C95.9083 114.879 114.88 95.9074 114.88 72.5052C114.88 49.1031 95.9083 30.1318 72.5061 30.1318C49.104 30.1318 30.1327 49.1031 30.1327 72.5052C30.1327 95.9074 49.104 114.879 72.5061 114.879Z" fill="#FF9700"/>
</svg>
