<svg width="61" height="58" viewBox="0 0 61 58" fill="none" xmlns="http://www.w3.org/2000/svg">
<path d="M27.5622 2.69665L27.5829 2.68516L27.6034 2.67317C29.4258 1.60557 32.0047 1.84813 34.0827 3.13128L34.0923 3.13721L34.102 3.14304C37.1346 4.96866 39.0706 8.52736 39.2217 12.2003C39.2781 14.2242 39.2697 16.1887 39.2612 18.1881C39.2553 19.5668 39.2494 20.962 39.2645 22.4049L39.2854 24.3939L41.2745 24.3839C42.5466 24.3774 43.7765 24.3443 44.9802 24.3119C47.7276 24.2378 50.339 24.1675 53.0061 24.4267L53.0102 24.4271C56.4804 24.7573 59.3737 28.4257 58.961 32.0096L58.9597 32.0215L58.9584 32.0335C58.5922 35.5904 57.8774 39.0497 57.1396 42.6204C56.8594 43.9762 56.5759 45.3481 56.307 46.7476C56.2013 47.2395 56.1079 47.7398 56.02 48.2103C56.0025 48.304 55.9853 48.3965 55.9681 48.4875C55.861 49.0576 55.7574 49.5872 55.6333 50.0973C55.3852 51.1176 55.0771 51.9614 54.6047 52.6731L54.5777 52.7138L54.5527 52.7558C53.3642 54.7512 51.13 56.0397 48.8909 55.9977L48.8716 55.9974L48.8524 55.9974C40.4952 56.0014 32.1384 56.0014 23.7779 55.9933L23.7544 55.9933L23.731 55.9939C22.2225 56.0278 20.6769 55.546 19.2247 54.6963L18.2938 54.1517L17.3273 54.6302C16.4309 55.0741 15.9108 55.2555 15.462 55.2394L15.4239 55.238L15.3858 55.2381C14.5672 55.2399 13.7513 55.2432 12.9373 55.2464C10.1613 55.2576 7.40879 55.2686 4.65592 55.2223L4.65207 55.2222C3.4668 55.2046 2.29821 54.2137 2.0865 53.0217C1.99378 52.4137 1.99779 51.8268 2.00294 51.0747C2.00453 50.8417 2.00623 50.5929 2.0052 50.3226C2.01231 47.1455 2.00993 43.9837 2.00755 40.8255C2.00459 36.8821 2.00162 32.944 2.01713 28.9881L2.01723 28.9622L2.01666 28.9362C1.99355 27.8874 2.62342 26.849 3.5264 26.4015L3.5609 26.3844L3.59471 26.366C4.08498 26.0991 4.64035 26.0951 5.81172 26.0867C5.94308 26.0858 6.08218 26.0848 6.22981 26.0833C7.67614 26.1002 9.07121 26.0956 10.449 26.0909C12.4168 26.0843 14.3492 26.0779 16.3453 26.1346L17.1788 26.1583L17.7823 25.5829C18.2696 25.1182 18.8241 24.6733 19.4513 24.1881C19.5741 24.0931 19.701 23.9955 19.8307 23.8959C20.3377 23.5062 20.8879 23.0834 21.408 22.6458C22.7311 21.5326 24.1251 20.1136 24.8849 18.0775L24.8906 18.0622L24.896 18.0469C25.7367 15.6766 25.4694 13.3238 25.2281 11.4291C25.2145 11.3225 25.2011 11.2173 25.1878 11.1135C24.9464 9.22993 24.762 7.78986 25.0805 6.394L25.0869 6.36579L25.0925 6.3374C25.4061 4.75326 26.3263 3.38185 27.5622 2.69665ZM28.6942 4.1527L28.644 4.17496L28.595 4.19995C27.7029 4.65547 27.2382 5.41156 27.0037 6.02938C26.7766 6.62775 26.7135 7.22285 26.6909 7.63008L26.6894 7.65782L26.6886 7.68559C26.6571 8.82852 26.8181 9.91722 26.9664 10.8442C26.984 10.9541 27.0014 11.0616 27.0184 11.1668C27.1529 12 27.2653 12.6958 27.2952 13.3978L27.2964 13.4264L27.2984 13.4549C27.491 16.1593 27.0596 18.7983 25.7244 20.8196L25.7141 20.8351L25.7041 20.8509C24.6266 22.5501 23.0028 23.7654 21.0567 25.222C20.8498 25.3769 20.6392 25.5345 20.4252 25.6957L20.3832 25.7273L20.343 25.7611C20.3183 25.7818 20.2789 25.8131 20.2284 25.8533C19.9824 26.0489 19.4728 26.454 19.1183 26.8618C18.6226 27.4321 18.1007 28.3343 18.2307 29.5197C18.2354 32.2599 18.2335 35.0089 18.2316 37.7606C18.2289 41.6707 18.2262 45.5865 18.2423 49.491C18.2032 51.258 19.2204 52.5002 20.3133 53.1996C21.3641 53.872 22.6355 54.1684 23.7356 54.1522C25.1249 54.1535 26.5145 54.1552 27.9043 54.1569C34.8739 54.1652 41.8483 54.1736 48.8222 54.1403C50.4495 54.1796 51.7353 53.3894 52.5832 52.3964C53.3996 51.4404 53.883 50.2309 54.0369 49.0755C54.3583 47.3452 54.7207 45.5817 55.0877 43.7962C55.8717 39.9816 56.6763 36.0669 57.1447 32.1633C57.4453 30.5482 56.8603 29.0351 55.9435 27.9788C55.0324 26.9289 53.642 26.1518 52.0638 26.1599C49.0491 25.9767 45.9468 26.0574 42.9512 26.1353C41.4161 26.1752 39.9091 26.2144 38.4563 26.217L38.3958 26.2171L38.3354 26.2209C38.1808 26.2305 37.9581 26.1671 37.7557 25.9769C37.5551 25.7885 37.4824 25.5776 37.484 25.4252L37.4842 25.3997L37.4838 25.3742C37.4523 23.3218 37.4562 21.2659 37.4621 19.1919C37.4625 19.069 37.4629 18.946 37.4632 18.823C37.4689 16.8777 37.4747 14.9156 37.4521 12.9521C37.4403 9.9973 36.2134 6.53806 33.224 4.73148L33.1991 4.71645L33.1738 4.70214C32.3939 4.26124 30.5671 3.32269 28.6942 4.1527ZM5.80666 27.9324L3.81168 27.9352L3.80946 29.9302C3.80149 37.0905 3.80149 44.2509 3.80946 51.4112L3.81168 53.4062L5.80666 53.409C8.68077 53.413 11.5589 53.413 14.433 53.409L16.4291 53.4062L16.4302 51.4101C16.4342 44.2505 16.4342 37.0909 16.4302 29.9313L16.4291 27.9352L14.433 27.9324C11.5589 27.9284 8.68077 27.9284 5.80666 27.9324Z" stroke="#1C1C1C" stroke-width="4"/>
</svg>
