<svg width="66" height="66" viewBox="0 0 66 66" fill="none" xmlns="http://www.w3.org/2000/svg">
<path d="M63.756 24.915L57.519 22.836L60.456 16.962C60.7537 16.3472 60.8533 15.6551 60.741 14.9813C60.6287 14.3074 60.31 13.685 59.829 13.2L52.8 6.17101C52.3124 5.68289 51.684 5.35989 51.0033 5.24742C50.3226 5.13496 49.6237 5.23868 49.005 5.54401L43.131 8.48101L41.052 2.24401C40.8324 1.59389 40.4157 1.02838 39.8597 0.626179C39.3037 0.223983 38.6362 0.00510732 37.95 1.10007e-05H28.05C27.3582 -0.00177483 26.6833 0.213913 26.1207 0.616589C25.5582 1.01927 25.1364 1.58856 24.915 2.24401L22.836 8.48101L16.962 5.54401C16.3472 5.24628 15.6551 5.1467 14.9813 5.25901C14.3074 5.37131 13.685 5.68997 13.2 6.17101L6.17101 13.2C5.68289 13.6876 5.35989 14.316 5.24742 14.9967C5.13496 15.6774 5.23868 16.3763 5.54401 16.995L8.48101 22.869L2.24401 24.948C1.59389 25.1676 1.02838 25.5843 0.626179 26.1403C0.223983 26.6963 0.00510732 27.3638 1.10007e-05 28.05V37.95C-0.00177483 38.6418 0.213913 39.3167 0.616589 39.8793C1.01927 40.4418 1.58856 40.8636 2.24401 41.085L8.48101 43.164L5.54401 49.038C5.24628 49.6528 5.1467 50.3449 5.25901 51.0187C5.37131 51.6926 5.68997 52.315 6.17101 52.8L13.2 59.829C13.6876 60.3171 14.316 60.6401 14.9967 60.7526C15.6774 60.865 16.3763 60.7613 16.995 60.456L22.869 57.519L24.948 63.756C25.1694 64.4114 25.5912 64.9807 26.1537 65.3834C26.7163 65.7861 27.3912 66.0018 28.083 66H37.983C38.6748 66.0018 39.3497 65.7861 39.9123 65.3834C40.4748 64.9807 40.8966 64.4114 41.118 63.756L43.197 57.519L49.071 60.456C49.6819 60.7462 50.3672 60.8417 51.0342 60.7296C51.7012 60.6174 52.3176 60.303 52.8 59.829L59.829 52.8C60.3171 52.3124 60.6401 51.684 60.7526 51.0033C60.865 50.3226 60.7613 49.6237 60.456 49.005L57.519 43.131L63.756 41.052C64.4061 40.8324 64.9716 40.4157 65.3738 39.8597C65.776 39.3037 65.9949 38.6362 66 37.95V28.05C66.0018 27.3582 65.7861 26.6833 65.3834 26.1207C64.9807 25.5582 64.4114 25.1364 63.756 24.915ZM59.4 35.574L55.44 36.894C54.5294 37.1894 53.6939 37.6793 52.9916 38.3298C52.2892 38.9803 51.7368 39.7759 51.3726 40.6612C51.0084 41.5466 50.8412 42.5005 50.8825 43.457C50.9239 44.4134 51.1728 45.3494 51.612 46.2L53.493 49.962L49.863 53.592L46.2 51.612C45.3537 51.1904 44.4268 50.9555 43.4818 50.9233C42.5369 50.891 41.5961 51.0622 40.723 51.4252C39.85 51.7882 39.0652 52.3345 38.4216 53.0272C37.7781 53.7198 37.2909 54.5427 36.993 55.44L35.673 59.4H30.426L29.106 55.44C28.8106 54.5294 28.3207 53.6939 27.6702 52.9916C27.0197 52.2892 26.2241 51.7368 25.3388 51.3726C24.4534 51.0084 23.4995 50.8412 22.543 50.8825C21.5866 50.9239 20.6506 51.1728 19.8 51.612L16.038 53.493L12.408 49.863L14.388 46.2C14.8272 45.3494 15.0761 44.4134 15.1175 43.457C15.1588 42.5005 14.9916 41.5466 14.6274 40.6612C14.2632 39.7759 13.7108 38.9803 13.0084 38.3298C12.3061 37.6793 11.4706 37.1894 10.56 36.894L6.60001 35.574V30.426L10.56 29.106C11.4706 28.8106 12.3061 28.3207 13.0084 27.6702C13.7108 27.0197 14.2632 26.2241 14.6274 25.3388C14.9916 24.4534 15.1588 23.4995 15.1175 22.543C15.0761 21.5866 14.8272 20.6506 14.388 19.8L12.507 16.137L16.137 12.507L19.8 14.388C20.6506 14.8272 21.5866 15.0761 22.543 15.1175C23.4995 15.1588 24.4534 14.9916 25.3388 14.6274C26.2241 14.2632 27.0197 13.7108 27.6702 13.0084C28.3207 12.3061 28.8106 11.4706 29.106 10.56L30.426 6.60001H35.574L36.894 10.56C37.1894 11.4706 37.6793 12.3061 38.3298 13.0084C38.9803 13.7108 39.7759 14.2632 40.6612 14.6274C41.5466 14.9916 42.5005 15.1588 43.457 15.1175C44.4134 15.0761 45.3494 14.8272 46.2 14.388L49.962 12.507L53.592 16.137L51.612 19.8C51.1904 20.6463 50.9555 21.5732 50.9233 22.5182C50.891 23.4631 51.0622 24.4039 51.4252 25.277C51.7882 26.15 52.3345 26.9348 53.0272 27.5784C53.7198 28.2219 54.5427 28.7091 55.44 29.007L59.4 30.327V35.574ZM33 19.8C30.3893 19.8 27.8372 20.5742 25.6665 22.0246C23.4957 23.475 21.8039 25.5366 20.8048 27.9486C19.8057 30.3606 19.5443 33.0146 20.0536 35.5752C20.563 38.1357 21.8201 40.4878 23.6662 42.3338C25.5122 44.1799 27.8643 45.437 30.4248 45.9464C32.9854 46.4557 35.6394 46.1943 38.0514 45.1952C40.4634 44.1961 42.525 42.5042 43.9754 40.3335C45.4258 38.1628 46.2 35.6107 46.2 33C46.2 29.4991 44.8093 26.1417 42.3338 23.6662C39.8583 21.1907 36.5009 19.8 33 19.8ZM33 39.6C31.6946 39.6 30.4186 39.2129 29.3332 38.4877C28.2479 37.7625 27.4019 36.7317 26.9024 35.5257C26.4029 34.3197 26.2722 32.9927 26.5268 31.7124C26.7815 30.4321 27.4101 29.2561 28.3331 28.3331C29.2561 27.4101 30.4321 26.7815 31.7124 26.5268C32.9927 26.2722 34.3197 26.4029 35.5257 26.9024C36.7317 27.4019 37.7625 28.2479 38.4877 29.3332C39.2129 30.4186 39.6 31.6946 39.6 33C39.6 34.7504 38.9046 36.4292 37.6669 37.6669C36.4292 38.9046 34.7504 39.6 33 39.6Z" fill="#1C1C1C"/>
</svg>
