<svg width="55" height="55" viewBox="0 0 55 55" fill="none" xmlns="http://www.w3.org/2000/svg">
<path d="M29.885 31.525H23.45V34.54H34.025V38.05H23.45V43H18.275V38.05H14.675V34.54H18.275V31.525H14.675V26.89H18.275V11.5H29.885C32.735 11.5 35.15 12.49 37.13 14.47C39.11 16.42 40.1 18.805 40.1 21.625C40.1 24.415 39.11 26.77 37.13 28.69C35.15 30.58 32.735 31.525 29.885 31.525ZM23.45 16.36V26.89H29.885C31.295 26.89 32.48 26.38 33.44 25.36C34.43 24.34 34.925 23.095 34.925 21.625C34.925 20.155 34.43 18.91 33.44 17.89C32.48 16.87 31.295 16.36 29.885 16.36H23.45Z" fill="#1C1C1C"/>
<circle cx="27.5" cy="27.5" r="24.5" stroke="#1C1C1C" stroke-width="6"/>
</svg>
