<svg width="84" height="60" viewBox="0 0 84 60" fill="none" xmlns="http://www.w3.org/2000/svg">
<path d="M66.7582 36.8569L66.1822 36.2349C69.1089 33.5174 71.4746 31.5398 74.9022 29.4807C76.251 28.6742 77.694 27.96 79.1926 27.3573L79.2419 27.3401C80.3616 26.8876 81.0809 25.7894 81.1045 24.481C81.1473 22.0745 80.5692 18.0335 77.5548 12.4397C74.4141 6.59276 71.2498 4.18193 69.1496 3.18885C68.2311 2.74486 67.2292 2.73843 66.3856 3.16311L66.3685 3.18027L66.2722 3.22531C66.0388 3.3154 65.784 3.41835 65.5079 3.52988C63.4183 4.37496 59.92 5.78844 56.0321 5.52033C54.1374 5.38306 52.3112 5.75197 50.759 6.58633L43.9381 10.2305L38.7506 13.9883L38.2539 13.2998L43.5077 9.49907L50.3587 5.83777C52.0522 4.93049 54.0325 4.5294 56.0899 4.67525C59.7787 4.93263 63.0372 3.61568 65.191 2.74486C65.45 2.63976 65.692 2.54324 65.9146 2.4553L65.9339 2.44243C67.0258 1.85903 68.3317 1.85259 69.5135 2.42313C71.7251 3.46768 75.0499 5.98577 78.2999 12.0386C81.3999 17.7933 81.9972 21.9908 81.9523 24.4982C81.9223 26.1283 80.9782 27.5568 79.5437 28.1359L79.4945 28.153C78.0515 28.7321 76.6492 29.4271 75.339 30.21C71.9734 32.2326 69.6463 34.178 66.7603 36.8591L66.7582 36.8569Z" stroke="#1C1C1C" stroke-width="3.5"/>
<path d="M62.8874 42.7082C62.8488 42.7082 62.8103 42.7082 62.7718 42.7082C61.6863 42.6825 60.6116 42.2857 59.7445 41.5907L60.2733 40.928C60.9969 41.5071 61.8897 41.8395 62.791 41.861C63.9428 41.8996 65.0069 41.4127 65.6941 40.5548C66.5355 39.5038 66.6854 38.0345 66.0816 36.724C65.8119 36.1277 65.3923 35.5937 64.8699 35.1711L51.0374 24.0778C49.695 23.029 49.027 22.5636 48.4404 22.156C47.6718 21.622 47.0103 21.1608 45.1562 19.6229L45.6958 18.9688C47.522 20.483 48.1707 20.9356 48.9221 21.4589C49.5194 21.8751 50.196 22.3448 51.5619 23.4129L65.4008 34.5084C66.0281 35.0124 66.5291 35.6559 66.8524 36.3701C67.591 37.9723 67.4004 39.7805 66.3557 41.0845C65.525 42.1205 64.2661 42.7082 62.8874 42.7082Z" stroke="#1C1C1C" stroke-width="3.5"/>
<path d="M12.1606 32.1982C11.5933 31.6984 10.9874 31.203 10.2873 30.6303C9.7371 30.182 9.1248 29.6801 8.40759 29.0774C7.11019 27.9814 5.67363 26.9347 4.13217 25.9673L4.11718 25.9609C2.6271 25.0214 1.81997 23.3699 2.03406 21.7333C2.35092 19.1981 3.62905 15.11 7.90875 10.0481C12.3876 4.75239 16.4125 3.02576 18.9987 2.50885C20.3518 2.22573 21.7584 2.54531 22.846 3.3861L22.8717 3.40541C23.7751 3.96522 24.5394 4.7052 25.3466 5.48808C26.8602 6.95517 28.4274 8.47374 31.2619 9.25019C31.4011 9.29308 34.4177 10.2368 38.7273 13.289L38.2392 13.9818C34.0516 11.0154 31.0564 10.0738 31.0264 10.0652C27.9949 9.23517 26.2757 7.56861 24.7578 6.09937C23.9721 5.33579 23.2271 4.61512 22.3835 4.10249L22.2958 4.03171C21.4351 3.36894 20.2854 3.10941 19.1657 3.34106C16.7058 3.83224 12.8736 5.49022 8.55103 10.5972C4.41049 15.4982 3.17732 19.4169 2.8733 21.8406C2.69989 23.1704 3.33788 24.4681 4.53894 25.2252L4.55393 25.2316C6.15534 26.2376 7.62401 27.3079 8.95138 28.4275C9.66217 29.0259 10.2745 29.5257 10.8204 29.9718C11.5269 30.5509 12.1392 31.0485 12.7194 31.5612L12.1606 32.1982Z" stroke="#1C1C1C" stroke-width="3.5"/>
<path d="M43.2909 57.7198C43.2523 57.7198 43.2159 57.7198 43.1774 57.7198C41.6937 57.6854 39.8697 56.9111 38.3025 55.6521L36.0117 53.8161L36.5405 53.1533L38.8313 54.9893C40.2593 56.1368 41.8928 56.8404 43.1967 56.8725C43.9909 56.8918 44.661 56.6666 45.207 56.2033C46.1661 55.4848 46.6906 54.5646 46.7056 53.5995C46.7206 52.6686 46.256 51.757 45.4339 51.0985L45.9627 50.4358L47.8853 51.9758C48.6111 52.5592 49.5081 52.8916 50.4073 52.9131C51.5548 52.9388 52.6189 52.4627 53.3061 51.6047C53.8841 50.8819 54.1432 49.9575 54.0383 49.0008C53.9205 47.937 53.3532 46.9246 52.484 46.2275L53.0128 45.5648L55.2543 47.3579C57.1105 48.6512 59.3563 48.4968 60.5702 46.9739C61.1804 46.2082 61.4352 45.2302 61.2832 44.2178C61.129 43.2011 60.5831 42.2681 59.746 41.5903L60.2769 40.9297C61.281 41.7404 61.9362 42.8622 62.1203 44.0912C62.3065 45.3395 61.9897 46.5493 61.2296 47.5016C59.7524 49.3526 56.9649 49.5821 54.7448 48.0335L54.6806 47.982C54.7748 48.2823 54.8411 48.589 54.8775 48.9022C55.0081 50.0862 54.6848 51.2315 53.9655 52.1324C53.1134 53.2005 51.8053 53.7989 50.3859 53.7603C49.3432 53.7367 48.3049 53.3657 47.4528 52.7136C47.5235 53.0075 47.5556 53.3078 47.5513 53.6123C47.532 54.8478 46.8855 56.0039 45.7315 56.8661C45.0678 57.4281 44.2414 57.7198 43.2887 57.7198H43.2909Z" stroke="#1C1C1C" stroke-width="3.5"/>
<path d="M29.9031 48.9154L29.8945 48.9068L30.509 48.3213L29.9031 48.9154Z" stroke="#1C1C1C" stroke-width="3.5"/>
<path d="M44.2821 33.652C42.5951 33.652 41.0707 32.7062 40.1309 30.9452L35.1447 21.5871C34.0207 19.4766 33.7274 17.7328 34.2519 16.2571L34.2968 16.1327L34.4039 16.0555L42.7 10.082L43.1945 10.7705L35.0098 16.6625C34.6308 17.8765 34.9199 19.3586 35.8918 21.186L40.878 30.5441C42.2975 33.2016 44.6418 33.163 46.3609 32.2429C47.6648 31.5415 49.0714 29.4888 47.5963 26.7177L44.6611 21.2161L45.6266 15.6866L46.4616 15.8324L45.5453 21.0745L48.3413 26.3187C49.9063 29.2572 48.6946 31.949 46.7613 32.9893C45.9285 33.4354 45.0871 33.6499 44.2821 33.6499V33.652Z" stroke="#1C1C1C" stroke-width="3.5"/>
<path d="M16.079 38.2874C15.9356 38.2874 15.7921 38.2809 15.6466 38.2681C14.4412 38.1544 13.3579 37.5817 12.5915 36.6508C11.8229 35.7264 11.4632 34.551 11.5745 33.3456C11.688 32.138 12.2596 31.0527 13.1888 30.2849L17.4192 26.7823L18.5732 26.1066C20.4016 25.371 22.4697 25.8986 23.7178 27.4193C24.4222 28.2665 24.7883 29.3475 24.7476 30.4607C24.7005 31.7562 24.1075 32.9681 23.1205 33.7831L18.9457 37.2471C18.1343 37.9249 17.1281 38.2874 16.0769 38.2874H16.079ZM17.8774 27.4965L13.7283 30.9412C12.9747 31.5632 12.5101 32.4469 12.4181 33.425C12.326 34.4052 12.6193 35.3596 13.2423 36.1103C13.8632 36.8653 14.7452 37.3308 15.7236 37.423C16.7063 37.5152 17.6547 37.2214 18.4041 36.5972L22.581 33.1311C23.3817 32.4683 23.8634 31.486 23.902 30.4329C23.9341 29.5277 23.6365 28.6505 23.0649 27.962C22.0715 26.7523 20.3716 26.3147 18.9158 26.8831L17.8753 27.4987L17.8774 27.4965Z" stroke="#1C1C1C" stroke-width="3.5"/>
<path d="M26.4981 50.8928C25.1985 50.8928 23.9075 50.3372 23.0148 49.2627C21.4391 47.3473 21.7002 44.4968 23.595 42.9053L27.7997 39.4177C29.7159 37.8348 32.5611 38.1072 34.1454 40.0226C34.8498 40.8698 35.2159 41.9508 35.1774 43.0661C35.1303 44.3616 34.5372 45.5735 33.5503 46.3885L29.3755 49.8589C28.5341 50.5539 27.5129 50.8928 26.4981 50.8928ZM30.6664 39.2354C29.8443 39.2354 29.0201 39.5099 28.3371 40.0719L24.1345 43.5552C22.5973 44.8485 22.3853 47.165 23.6656 48.72C24.9566 50.2729 27.2752 50.4917 28.8338 49.2026L33.0086 45.7301C33.8093 45.0673 34.291 44.0828 34.3295 43.0297C34.3617 42.1245 34.0641 41.2473 33.4924 40.5588C32.7688 39.6837 31.7198 39.2311 30.6643 39.2311L30.6664 39.2354Z" stroke="#1C1C1C" stroke-width="3.5"/>
<path d="M21.2748 44.5909C21.1335 44.5909 20.99 44.5845 20.8466 44.5716C19.6477 44.4601 18.5687 43.8896 17.8043 42.9673C16.2243 41.0562 16.4898 38.2121 18.3995 36.6292L24.1094 31.8847C25.03 31.1211 26.1946 30.7629 27.3957 30.8745C28.5946 30.9881 29.6736 31.5565 30.4358 32.4788C31.1401 33.3261 31.5062 34.4028 31.4677 35.5074C31.4206 36.7922 30.8319 37.9976 29.8492 38.8169L24.1329 43.555C23.3236 44.2306 22.3217 44.5888 21.2748 44.5888V44.5909ZM26.9653 31.7024C26.1175 31.7024 25.3061 31.9919 24.651 32.5367L18.9412 37.2812C17.3911 38.566 17.1749 40.8739 18.4573 42.4246C19.076 43.1732 19.9517 43.6343 20.9258 43.7244C21.8978 43.8145 22.8462 43.5228 23.5913 42.9008L29.3075 38.1627C30.1039 37.4978 30.5835 36.5198 30.622 35.4774C30.6542 34.5808 30.3566 33.7078 29.7849 33.0193C29.1662 32.2708 28.2906 31.8096 27.3165 31.7174C27.1987 31.7067 27.081 31.7002 26.9653 31.7002V31.7024Z" stroke="#1C1C1C" stroke-width="3.5"/>
<path d="M32.4941 55.9059C31.2759 55.9059 30.0684 55.3847 29.2335 54.3745C28.5163 53.5058 28.178 52.4055 28.285 51.2773C28.3921 50.1491 28.9273 49.1324 29.7944 48.4161L31.7962 46.7516C31.9139 46.6573 32.0274 46.5693 32.1451 46.4964C33.9392 45.2802 36.3563 45.6234 37.7501 47.3072C38.4095 48.1093 38.752 49.1196 38.7135 50.1577C38.6707 51.3738 38.114 52.5085 37.1891 53.272L35.1874 54.9365C34.3995 55.5885 33.4447 55.9059 32.4941 55.9059ZM34.5023 46.6251C33.8472 46.6251 33.1878 46.816 32.6033 47.2106C32.4984 47.2771 32.4149 47.3436 32.3292 47.4122L30.3318 49.0702C29.6402 49.6429 29.2121 50.4537 29.1264 51.3567C29.0408 52.2597 29.3105 53.1412 29.8822 53.834C31.0704 55.2689 33.207 55.4727 34.6436 54.2844L36.6453 52.62C37.3861 52.0087 37.8293 51.1014 37.8635 50.1277C37.8935 49.2976 37.6195 48.489 37.0928 47.8477C36.427 47.0455 35.4678 46.6229 34.4959 46.6229L34.5023 46.6251Z" stroke="#1C1C1C" stroke-width="3.5"/>
<path d="M51.8354 34.3506L51.3164 35.0195L59.7509 41.5883L60.2699 40.9194L51.8354 34.3506Z" stroke="#1C1C1C" stroke-width="3.5"/>
<path d="M45.9031 40.0286L45.3828 40.6992L52.4871 46.232L53.0074 45.5614L45.9031 40.0286Z" stroke="#1C1C1C" stroke-width="3.5"/>
<path d="M39.9304 45.7424L39.4102 46.4131L45.4385 51.1062L45.9587 50.4356L39.9304 45.7424Z" stroke="#1C1C1C" stroke-width="3.5"/>
<path d="M53.0041 23.5519C50.8117 23.5519 49.5957 22.947 49.4844 22.8891L49.8762 22.1362L49.6813 22.5116L49.8762 22.1341C49.934 22.1641 55.8044 25.0147 65.7083 17.2695L66.2285 17.9387C60.3624 22.5266 55.86 23.5497 53.0062 23.5497L53.0041 23.5519Z" stroke="#1C1C1C" stroke-width="3.5"/>
</svg>
